# Wavefront .OBJ file for tesselated shape: forearm-1/Racer 999_p09-1 path: D:\OneDrive - Università degli Studi di Parma\Altro\Robot_cadsim\Comau_Racer_7_1.0\cad\Racer 999_p09.SLDPRT

g body_1
v 0.000455 0.060748 0.028690
v 0.000455 0.059748 0.028690
v 0.000000 0.059750 0.028750
v 0.000875 0.060744 0.028516
v 0.000875 0.059744 0.028516
v 0.001516 0.060731 0.027875
v 0.001516 0.059731 0.027875
v 0.001750 0.060725 0.027000
v 0.001750 0.059724 0.027000
v 0.001690 0.059726 0.027453
v 0.001690 0.060726 0.027453
v 0.001690 0.060726 0.026548
v 0.001516 0.060731 0.026125
v 0.001516 0.059731 0.026125
v 0.001690 0.059726 0.026548
v 0.000875 0.060744 0.025484
v 0.000875 0.059744 0.025484
v 0.000453 0.060748 0.025310
v 0.000453 0.059748 0.025310
v 0.000000 0.060750 0.025250
v 0.000000 0.059750 0.025250
v -0.000453 0.060748 0.025310
v -0.000453 0.059748 0.025310
v -0.000875 0.060744 0.025484
v -0.000875 0.059744 0.025484
v -0.001516 0.060731 0.026125
v -0.001516 0.059731 0.026125
v -0.001750 0.060725 0.027000
v -0.001750 0.059724 0.027000
v -0.001690 0.059726 0.026547
v -0.001690 0.060726 0.026547
v -0.001690 0.060726 0.027453
v -0.001516 0.060731 0.027875
v -0.001516 0.059731 0.027875
v -0.001690 0.059726 0.027453
v -0.000875 0.060744 0.028516
v -0.000875 0.059744 0.028516
v -0.000452 0.060748 0.028690
v -0.000452 0.059748 0.028690
v 0.000000 0.060750 0.028750
v -0.060750 0.000000 0.000000
v -0.060750 0.000000 0.033000
v -0.059422 0.012631 0.033000
v -0.059422 0.012631 0.000000
v -0.055498 0.024709 0.033000
v -0.055498 0.024709 0.000000
v -0.049148 0.035708 0.033000
v -0.049148 0.035708 0.000000
v -0.040650 0.045146 0.033000
v -0.040650 0.045146 0.000000
v -0.030375 0.052611 0.033000
v -0.030375 0.052611 0.000000
v -0.018773 0.057777 0.033000
v 0.018773 0.057777 0.000000
v 0.018773 0.057777 0.033000
v 0.030375 0.052611 0.033000
v 0.030375 0.052611 0.000000
v 0.040650 0.045146 0.033000
v 0.040650 0.045146 0.000000
v 0.049148 0.035708 0.033000
v 0.049148 0.035708 0.000000
v 0.055498 0.024709 0.033000
v 0.055498 0.024709 0.000000
v 0.059422 0.012631 0.033000
v 0.059422 0.012631 0.000000
v 0.060750 0.000000 0.033000
v 0.060750 0.000000 0.000000
v 0.059422 -0.012631 0.033000
v 0.059422 -0.012631 0.000000
v 0.055498 -0.024709 0.033000
v 0.055498 -0.024709 0.000000
v 0.049148 -0.035708 0.033000
v 0.049148 -0.035708 0.000000
v 0.040650 -0.045146 0.033000
v 0.040650 -0.045146 0.000000
v 0.030375 -0.052611 0.033000
v 0.030375 -0.052611 0.000000
v 0.018773 -0.057777 0.033000
v 0.018773 -0.057777 0.000000
v 0.006350 -0.060417 0.033000
v 0.006350 -0.060417 0.000000
v -0.006350 -0.060417 0.033000
v -0.006350 -0.060417 0.000000
v -0.018773 -0.057777 0.033000
v -0.018773 -0.057777 0.000000
v -0.030375 -0.052611 0.033000
v -0.030375 -0.052611 0.000000
v -0.040650 -0.045146 0.033000
v -0.040650 -0.045146 0.000000
v -0.049148 -0.035708 0.033000
v -0.049148 -0.035708 0.000000
v -0.055498 -0.024709 0.033000
v -0.055498 -0.024709 0.000000
v -0.059422 -0.012631 0.033000
v -0.059422 -0.012631 0.000000
v -0.006350 0.060417 0.033000
v -0.001516 0.060731 0.027875
v -0.001690 0.060726 0.027453
v -0.000875 0.060744 0.028516
v 0.006350 0.060417 0.033000
v 0.000000 0.060750 0.028750
v -0.000452 0.060748 0.028690
v 0.000875 0.060744 0.028516
v 0.000455 0.060748 0.028690
v 0.001516 0.060731 0.027875
v 0.006350 0.060417 0.028003
v 0.001690 0.060726 0.027453
v 0.001690 0.060726 0.026548
v 0.001750 0.060725 0.027000
v 0.001516 0.060731 0.026125
v 0.000000 0.060750 0.017004
v 0.000875 0.060744 0.025484
v 0.000000 0.060750 0.025250
v 0.000453 0.060748 0.025310
v -0.000453 0.060748 0.025310
v -0.006350 0.060417 0.006005
v -0.000875 0.060744 0.025484
v -0.001516 0.060731 0.026125
v -0.001750 0.060725 0.027000
v -0.001690 0.060726 0.026547
v -0.018773 0.057777 0.000000
v -0.006350 0.060417 0.005005
v -0.001516 0.060731 0.006875
v -0.001690 0.060726 0.006453
v 0.000000 0.060750 0.016004
v -0.000875 0.060744 0.007516
v 0.000000 0.060750 0.007750
v -0.000452 0.060748 0.007690
v 0.000455 0.060748 0.007690
v 0.006350 0.060417 0.027003
v 0.000875 0.060744 0.007516
v 0.001516 0.060731 0.006875
v 0.006350 0.060417 0.000000
v 0.001750 0.060725 0.006000
v 0.001690 0.060726 0.006453
v 0.001690 0.060726 0.005548
v 0.001516 0.060731 0.005125
v 0.000000 0.060750 0.004250
v 0.000453 0.060748 0.004310
v -0.006350 0.060417 0.000000
v -0.000453 0.060748 0.004310
v -0.000875 0.060744 0.004484
v -0.001516 0.060731 0.005125
v -0.001690 0.060726 0.005547
v -0.001750 0.060725 0.006000
v 0.000875 0.060744 0.004484
v 0.009813 0.059952 0.033000
v -0.009240 0.060043 0.000000
v -0.009817 0.059951 0.000000
v 0.009235 0.060044 0.033000
v -0.058444 -0.012423 0.000000
v -0.059750 0.000000 0.000000
v -0.059750 0.000000 0.033000
v -0.054584 -0.024303 0.000000
v -0.058444 -0.012423 0.033000
v -0.048339 -0.035120 0.000000
v -0.054584 -0.024303 0.033000
v -0.039981 -0.044403 0.000000
v -0.048339 -0.035120 0.033000
v -0.029875 -0.051745 0.000000
v -0.039981 -0.044403 0.033000
v -0.018464 -0.056826 0.000000
v -0.029875 -0.051745 0.033000
v -0.006246 -0.059423 0.000000
v -0.018464 -0.056826 0.033000
v 0.006246 -0.059423 0.000000
v -0.006246 -0.059423 0.033000
v 0.018464 -0.056826 0.000000
v 0.006246 -0.059423 0.033000
v 0.029875 -0.051745 0.000000
v 0.018464 -0.056826 0.033000
v 0.039981 -0.044403 0.000000
v 0.029875 -0.051745 0.033000
v 0.048339 -0.035120 0.000000
v 0.039981 -0.044403 0.033000
v 0.054584 -0.024303 0.000000
v 0.048339 -0.035120 0.033000
v 0.058444 -0.012423 0.000000
v 0.054584 -0.024303 0.033000
v 0.059750 0.000000 0.000000
v 0.058444 -0.012423 0.033000
v 0.058444 0.012423 0.000000
v 0.059750 0.000000 0.033000
v 0.054584 0.024303 0.000000
v 0.058444 0.012423 0.033000
v 0.048339 0.035120 0.000000
v 0.054584 0.024303 0.033000
v 0.039981 0.044403 0.000000
v 0.048339 0.035120 0.033000
v 0.029875 0.051745 0.000000
v 0.039981 0.044403 0.033000
v 0.018464 0.056826 0.000000
v 0.029875 0.051745 0.033000
v -0.029875 0.051745 0.000000
v -0.018464 0.056826 0.000000
v -0.018464 0.056826 0.033000
v -0.039981 0.044403 0.000000
v -0.029875 0.051745 0.033000
v -0.048339 0.035120 0.000000
v -0.039981 0.044403 0.033000
v -0.054584 0.024303 0.000000
v -0.048339 0.035120 0.033000
v -0.058444 0.012423 0.000000
v -0.054584 0.024303 0.033000
v -0.058444 0.012423 0.033000
v -0.006246 0.059423 0.006186
v -0.009817 0.058938 0.000000
v 0.006246 0.059423 0.027822
v 0.006246 0.059423 0.033000
v 0.001516 0.059731 0.027875
v 0.001690 0.059726 0.027453
v 0.000000 0.059750 0.028750
v 0.000455 0.059748 0.028690
v -0.006246 0.059423 0.033000
v -0.000452 0.059748 0.028690
v -0.000875 0.059744 0.028516
v 0.000875 0.059744 0.028516
v -0.001750 0.059724 0.027000
v -0.001690 0.059726 0.027453
v -0.001690 0.059726 0.026547
v -0.001516 0.059731 0.026125
v -0.001516 0.059731 0.027875
v -0.000453 0.059748 0.025310
v 0.000000 0.059750 0.017004
v 0.000000 0.059750 0.025250
v 0.000875 0.059744 0.025484
v 0.000453 0.059748 0.025310
v -0.000875 0.059744 0.025484
v 0.001516 0.059731 0.026125
v 0.001750 0.059724 0.027000
v 0.001690 0.059726 0.026548
v 0.018464 0.056826 0.033000
v 0.006246 0.059423 0.026822
v 0.009813 0.058939 0.033000
v 0.006246 0.059423 0.000000
v 0.001690 0.059726 0.006453
v 0.001516 0.059731 0.006875
v 0.000455 0.059748 0.007690
v 0.000000 0.059750 0.016004
v 0.000000 0.059750 0.007750
v -0.000875 0.059744 0.007516
v -0.000452 0.059748 0.007690
v 0.000875 0.059744 0.007516
v -0.006246 0.059423 0.005186
v -0.001516 0.059731 0.006875
v -0.001750 0.059724 0.006000
v -0.001690 0.059726 0.006453
v -0.006246 0.059423 0.000000
v -0.001516 0.059731 0.005125
v -0.001690 0.059726 0.005547
v 0.000000 0.059750 0.004250
v -0.000453 0.059748 0.004310
v 0.000875 0.059744 0.004484
v 0.000453 0.059748 0.004310
v -0.000875 0.059744 0.004484
v 0.001516 0.059731 0.005125
v 0.001750 0.059724 0.006000
v 0.001690 0.059726 0.005548
v -0.009240 0.059031 0.000000
v 0.009235 0.059032 0.033000
v 0.006350 -0.060417 0.033000
v 0.006246 -0.059423 0.033000
v -0.006246 -0.059423 0.033000
v 0.018773 -0.057777 0.033000
v 0.018464 -0.056826 0.033000
v -0.040650 -0.045146 0.033000
v -0.030375 -0.052611 0.033000
v -0.029875 -0.051745 0.033000
v -0.018773 -0.057777 0.033000
v -0.018464 -0.056826 0.033000
v -0.006350 -0.060417 0.033000
v -0.049148 -0.035708 0.033000
v -0.039981 -0.044403 0.033000
v 0.030375 -0.052611 0.033000
v 0.029875 -0.051745 0.033000
v 0.040650 -0.045146 0.033000
v 0.039981 -0.044403 0.033000
v 0.049148 -0.035708 0.033000
v 0.048339 -0.035120 0.033000
v 0.055498 -0.024709 0.033000
v 0.054584 -0.024303 0.033000
v 0.059422 -0.012631 0.033000
v 0.058444 -0.012423 0.033000
v 0.060750 0.000000 0.033000
v 0.059750 0.000000 0.033000
v 0.059422 0.012631 0.033000
v 0.058444 0.012423 0.033000
v 0.006246 0.059423 0.033000
v 0.009235 0.059032 0.033000
v 0.009235 0.060044 0.033000
v -0.006350 0.060417 0.033000
v -0.006246 0.059423 0.033000
v 0.018773 0.057777 0.033000
v 0.018464 0.056826 0.033000
v 0.029875 0.051745 0.033000
v 0.009813 0.059952 0.033000
v 0.009813 0.058939 0.033000
v 0.006350 0.060417 0.033000
v -0.018773 0.057777 0.033000
v -0.018464 0.056826 0.033000
v -0.040650 0.045146 0.033000
v -0.049148 0.035708 0.033000
v -0.048339 0.035120 0.033000
v -0.055498 0.024709 0.033000
v -0.054584 0.024303 0.033000
v 0.055498 0.024709 0.033000
v 0.054584 0.024303 0.033000
v 0.049148 0.035708 0.033000
v 0.048339 0.035120 0.033000
v 0.030375 0.052611 0.033000
v 0.039981 0.044403 0.033000
v -0.030375 0.052611 0.033000
v -0.029875 0.051745 0.033000
v -0.039981 0.044403 0.033000
v -0.060750 0.000000 0.033000
v -0.059750 0.000000 0.033000
v -0.058444 0.012423 0.033000
v -0.059422 -0.012631 0.033000
v -0.058444 -0.012423 0.033000
v 0.040650 0.045146 0.033000
v -0.059422 0.012631 0.033000
v -0.055498 -0.024709 0.033000
v -0.054584 -0.024303 0.033000
v -0.048339 -0.035120 0.033000
v 0.059422 0.012631 0.000000
v 0.060750 0.000000 0.000000
v 0.059750 0.000000 0.000000
v 0.059422 -0.012631 0.000000
v 0.058444 -0.012423 0.000000
v 0.055498 0.024709 0.000000
v 0.054584 0.024303 0.000000
v 0.048339 0.035120 0.000000
v 0.058444 0.012423 0.000000
v 0.055498 -0.024709 0.000000
v 0.054584 -0.024303 0.000000
v 0.018773 -0.057777 0.000000
v 0.006350 -0.060417 0.000000
v 0.006246 -0.059423 0.000000
v -0.006350 -0.060417 0.000000
v -0.006246 -0.059423 0.000000
v 0.049148 -0.035708 0.000000
v 0.048339 -0.035120 0.000000
v 0.040650 -0.045146 0.000000
v 0.039981 -0.044403 0.000000
v 0.030375 -0.052611 0.000000
v 0.029875 -0.051745 0.000000
v 0.018464 -0.056826 0.000000
v -0.006246 0.059423 0.000000
v -0.009240 0.059031 0.000000
v -0.009240 0.060043 0.000000
v -0.006350 0.060417 0.000000
v 0.006350 0.060417 0.000000
v 0.006246 0.059423 0.000000
v 0.018773 0.057777 0.000000
v 0.030375 0.052611 0.000000
v 0.029875 0.051745 0.000000
v 0.040650 0.045146 0.000000
v 0.039981 0.044403 0.000000
v -0.018773 -0.057777 0.000000
v -0.018464 -0.056826 0.000000
v -0.030375 -0.052611 0.000000
v -0.029875 -0.051745 0.000000
v -0.040650 -0.045146 0.000000
v -0.039981 -0.044403 0.000000
v 0.018464 0.056826 0.000000
v 0.049148 0.035708 0.000000
v -0.049148 -0.035708 0.000000
v -0.048339 -0.035120 0.000000
v -0.055498 0.024709 0.000000
v -0.049148 0.035708 0.000000
v -0.048339 0.035120 0.000000
v -0.040650 0.045146 0.000000
v -0.039981 0.044403 0.000000
v -0.060750 0.000000 0.000000
v -0.059750 0.000000 0.000000
v -0.058444 -0.012423 0.000000
v -0.059422 0.012631 0.000000
v -0.058444 0.012423 0.000000
v -0.030375 0.052611 0.000000
v -0.029875 0.051745 0.000000
v -0.018773 0.057777 0.000000
v -0.018464 0.056826 0.000000
v -0.009817 0.059951 0.000000
v -0.009817 0.058938 0.000000
v -0.055498 -0.024709 0.000000
v -0.054584 -0.024303 0.000000
v -0.059422 -0.012631 0.000000
v -0.054584 0.024303 0.000000
v 0.009813 0.058939 0.033000
v 0.009813 0.059952 0.033000
v 0.006350 0.060417 0.027003
v 0.000000 0.060750 0.016004
v 0.000000 0.059750 0.016004
v 0.006246 0.059423 0.026822
v -0.006350 0.060417 0.005005
v -0.006246 0.059423 0.005186
v -0.009240 0.059031 0.000000
v -0.009240 0.060043 0.000000
v -0.009817 0.058938 0.000000
v -0.009817 0.059951 0.000000
v -0.006350 0.060417 0.006005
v 0.000000 0.060750 0.017004
v 0.000000 0.059750 0.017004
v -0.006246 0.059423 0.006186
v 0.006350 0.060417 0.028003
v 0.006246 0.059423 0.027822
v 0.009235 0.059032 0.033000
v 0.009235 0.060044 0.033000
v 0.000455 0.060748 0.007690
v 0.000455 0.059748 0.007690
v 0.000000 0.059750 0.007750
v 0.000875 0.060744 0.007516
v 0.000875 0.059744 0.007516
v 0.001516 0.060731 0.006875
v 0.001516 0.059731 0.006875
v 0.001750 0.060725 0.006000
v 0.001750 0.059724 0.006000
v 0.001690 0.059726 0.006453
v 0.001690 0.060726 0.006453
v 0.001690 0.060726 0.005548
v 0.001516 0.060731 0.005125
v 0.001516 0.059731 0.005125
v 0.001690 0.059726 0.005548
v 0.000875 0.060744 0.004484
v 0.000875 0.059744 0.004484
v 0.000453 0.060748 0.004310
v 0.000453 0.059748 0.004310
v 0.000000 0.060750 0.004250
v 0.000000 0.059750 0.004250
v -0.000453 0.060748 0.004310
v -0.000453 0.059748 0.004310
v -0.000875 0.060744 0.004484
v -0.000875 0.059744 0.004484
v -0.001516 0.060731 0.005125
v -0.001516 0.059731 0.005125
v -0.001750 0.060725 0.006000
v -0.001750 0.059724 0.006000
v -0.001690 0.059726 0.005547
v -0.001690 0.060726 0.005547
v -0.001690 0.060726 0.006453
v -0.001516 0.060731 0.006875
v -0.001516 0.059731 0.006875
v -0.001690 0.059726 0.006453
v -0.000875 0.060744 0.007516
v -0.000875 0.059744 0.007516
v -0.000452 0.060748 0.007690
v -0.000452 0.059748 0.007690
v 0.000000 0.060750 0.007750
vn -0.260 0.000 -0.966
vn -0.260 0.000 -0.966
vn 0.000 0.000 -1.000
vn -0.500 0.000 -0.866
vn -0.500 0.000 -0.866
vn -0.866 0.000 -0.500
vn -0.866 0.000 -0.500
vn -1.000 0.000 0.000
vn -1.000 0.000 0.000
vn -0.966 0.000 -0.259
vn -0.966 0.000 -0.259
vn -0.966 0.000 0.259
vn -0.866 0.000 0.500
vn -0.866 0.000 0.500
vn -0.966 0.000 0.259
vn -0.500 0.000 0.866
vn -0.500 0.000 0.866
vn -0.259 0.000 0.966
vn -0.259 0.000 0.966
vn 0.000 0.000 1.000
vn 0.000 0.000 1.000
vn 0.259 0.000 0.966
vn 0.259 0.000 0.966
vn 0.500 0.000 0.866
vn 0.500 0.000 0.866
vn 0.866 0.000 0.500
vn 0.866 0.000 0.500
vn 1.000 0.000 0.000
vn 1.000 0.000 0.000
vn 0.966 0.000 0.259
vn 0.966 0.000 0.259
vn 0.966 0.000 -0.259
vn 0.866 0.000 -0.500
vn 0.866 0.000 -0.500
vn 0.966 0.000 -0.259
vn 0.500 0.000 -0.866
vn 0.500 0.000 -0.866
vn 0.259 0.000 -0.966
vn 0.259 0.000 -0.966
vn 0.000 0.000 -1.000
vn -1.000 0.000 0.000
vn -1.000 0.000 0.000
vn -0.978 0.208 0.000
vn -0.978 0.208 0.000
vn -0.914 0.407 0.000
vn -0.914 0.407 0.000
vn -0.809 0.588 0.000
vn -0.809 0.588 0.000
vn -0.669 0.743 0.000
vn -0.669 0.743 0.000
vn -0.500 0.866 0.000
vn -0.500 0.866 0.000
vn -0.309 0.951 0.000
vn 0.309 0.951 0.000
vn 0.309 0.951 0.000
vn 0.500 0.866 0.000
vn 0.500 0.866 0.000
vn 0.669 0.743 0.000
vn 0.669 0.743 0.000
vn 0.809 0.588 0.000
vn 0.809 0.588 0.000
vn 0.914 0.407 0.000
vn 0.914 0.407 0.000
vn 0.978 0.208 0.000
vn 0.978 0.208 0.000
vn 1.000 0.000 0.000
vn 1.000 0.000 0.000
vn 0.978 -0.208 0.000
vn 0.978 -0.208 0.000
vn 0.914 -0.407 0.000
vn 0.914 -0.407 0.000
vn 0.809 -0.588 0.000
vn 0.809 -0.588 0.000
vn 0.669 -0.743 0.000
vn 0.669 -0.743 0.000
vn 0.500 -0.866 0.000
vn 0.500 -0.866 0.000
vn 0.309 -0.951 0.000
vn 0.309 -0.951 0.000
vn 0.105 -0.995 0.000
vn 0.105 -0.995 0.000
vn -0.105 -0.995 0.000
vn -0.105 -0.995 0.000
vn -0.309 -0.951 0.000
vn -0.309 -0.951 0.000
vn -0.500 -0.866 0.000
vn -0.500 -0.866 0.000
vn -0.669 -0.743 0.000
vn -0.669 -0.743 0.000
vn -0.809 -0.588 0.000
vn -0.809 -0.588 0.000
vn -0.914 -0.407 0.000
vn -0.914 -0.407 0.000
vn -0.978 -0.208 0.000
vn -0.978 -0.208 0.000
vn -0.105 0.995 0.000
vn -0.025 1.000 0.000
vn -0.028 1.000 0.000
vn -0.014 1.000 0.000
vn 0.105 0.995 0.000
vn 0.000 1.000 0.000
vn -0.007 1.000 0.000
vn 0.014 1.000 0.000
vn 0.007 1.000 0.000
vn 0.025 1.000 0.000
vn 0.105 0.995 0.000
vn 0.028 1.000 0.000
vn 0.028 1.000 0.000
vn 0.029 1.000 0.000
vn 0.025 1.000 0.000
vn 0.000 1.000 0.000
vn 0.014 1.000 0.000
vn 0.000 1.000 0.000
vn 0.007 1.000 0.000
vn -0.007 1.000 0.000
vn -0.105 0.995 0.000
vn -0.014 1.000 0.000
vn -0.025 1.000 0.000
vn -0.029 1.000 0.000
vn -0.028 1.000 0.000
vn -0.309 0.951 0.000
vn -0.105 0.995 0.000
vn -0.025 1.000 0.000
vn -0.028 1.000 0.000
vn 0.000 1.000 0.000
vn -0.014 1.000 0.000
vn 0.000 1.000 0.000
vn -0.007 1.000 0.000
vn 0.007 1.000 0.000
vn 0.105 0.995 0.000
vn 0.014 1.000 0.000
vn 0.025 1.000 0.000
vn 0.105 0.995 0.000
vn 0.029 1.000 0.000
vn 0.028 1.000 0.000
vn 0.028 1.000 0.000
vn 0.025 1.000 0.000
vn 0.000 1.000 0.000
vn 0.007 1.000 0.000
vn -0.105 0.995 0.000
vn -0.007 1.000 0.000
vn -0.014 1.000 0.000
vn -0.025 1.000 0.000
vn -0.028 1.000 0.000
vn -0.029 1.000 0.000
vn 0.014 1.000 0.000
vn 0.162 0.987 0.000
vn -0.152 0.988 0.000
vn -0.162 0.987 0.000
vn 0.152 0.988 0.000
vn 0.978 0.208 0.000
vn 1.000 0.000 0.000
vn 1.000 0.000 0.000
vn 0.914 0.407 0.000
vn 0.978 0.208 0.000
vn 0.809 0.588 0.000
vn 0.914 0.407 0.000
vn 0.669 0.743 0.000
vn 0.809 0.588 0.000
vn 0.500 0.866 0.000
vn 0.669 0.743 0.000
vn 0.309 0.951 0.000
vn 0.500 0.866 0.000
vn 0.105 0.995 0.000
vn 0.309 0.951 0.000
vn -0.105 0.995 0.000
vn 0.105 0.995 0.000
vn -0.309 0.951 0.000
vn -0.105 0.995 0.000
vn -0.500 0.866 0.000
vn -0.309 0.951 0.000
vn -0.669 0.743 0.000
vn -0.500 0.866 0.000
vn -0.809 0.588 0.000
vn -0.669 0.743 0.000
vn -0.914 0.407 0.000
vn -0.809 0.588 0.000
vn -0.978 0.208 0.000
vn -0.914 0.407 0.000
vn -1.000 0.000 0.000
vn -0.978 0.208 0.000
vn -0.978 -0.208 0.000
vn -1.000 0.000 0.000
vn -0.914 -0.407 0.000
vn -0.978 -0.208 0.000
vn -0.809 -0.588 0.000
vn -0.914 -0.407 0.000
vn -0.669 -0.743 0.000
vn -0.809 -0.588 0.000
vn -0.500 -0.866 0.000
vn -0.669 -0.743 0.000
vn -0.309 -0.951 0.000
vn -0.500 -0.866 0.000
vn 0.500 -0.866 0.000
vn 0.309 -0.951 0.000
vn 0.309 -0.951 0.000
vn 0.669 -0.743 0.000
vn 0.500 -0.866 0.000
vn 0.809 -0.588 0.000
vn 0.669 -0.743 0.000
vn 0.914 -0.407 0.000
vn 0.809 -0.588 0.000
vn 0.978 -0.208 0.000
vn 0.914 -0.407 0.000
vn 0.978 -0.208 0.000
vn 0.105 -0.995 0.000
vn 0.164 -0.986 0.000
vn -0.105 -0.995 0.000
vn -0.105 -0.995 0.000
vn -0.025 -1.000 0.000
vn -0.028 -1.000 0.000
vn 0.000 -1.000 0.000
vn -0.008 -1.000 0.000
vn 0.105 -0.995 0.000
vn 0.008 -1.000 0.000
vn 0.015 -1.000 0.000
vn -0.015 -1.000 0.000
vn 0.029 -1.000 0.000
vn 0.028 -1.000 0.000
vn 0.028 -1.000 0.000
vn 0.025 -1.000 0.000
vn 0.025 -1.000 0.000
vn 0.008 -1.000 0.000
vn 0.000 -1.000 0.000
vn 0.000 -1.000 0.000
vn -0.015 -1.000 0.000
vn -0.008 -1.000 0.000
vn 0.015 -1.000 0.000
vn -0.025 -1.000 0.000
vn -0.029 -1.000 0.000
vn -0.028 -1.000 0.000
vn -0.309 -0.951 0.000
vn -0.105 -0.995 0.000
vn -0.164 -0.986 0.000
vn -0.105 -0.995 0.000
vn -0.028 -1.000 0.000
vn -0.025 -1.000 0.000
vn -0.008 -1.000 0.000
vn 0.000 -1.000 0.000
vn 0.000 -1.000 0.000
vn 0.015 -1.000 0.000
vn 0.008 -1.000 0.000
vn -0.015 -1.000 0.000
vn 0.105 -0.995 0.000
vn 0.025 -1.000 0.000
vn 0.029 -1.000 0.000
vn 0.028 -1.000 0.000
vn 0.105 -0.995 0.000
vn 0.025 -1.000 0.000
vn 0.028 -1.000 0.000
vn 0.000 -1.000 0.000
vn 0.008 -1.000 0.000
vn -0.015 -1.000 0.000
vn -0.008 -1.000 0.000
vn 0.015 -1.000 0.000
vn -0.025 -1.000 0.000
vn -0.029 -1.000 0.000
vn -0.028 -1.000 0.000
vn 0.155 -0.988 0.000
vn -0.155 -0.988 0.000
vn 0.000 0.000 1.000
vn 0.000 0.000 1.000
vn 0.000 0.000 1.000
vn 0.000 0.000 1.000
vn 0.000 0.000 1.000
vn 0.000 0.000 1.000
vn 0.000 0.000 1.000
vn 0.000 0.000 1.000
vn 0.000 0.000 1.000
vn 0.000 0.000 1.000
vn 0.000 0.000 1.000
vn 0.000 0.000 1.000
vn 0.000 0.000 1.000
vn 0.000 0.000 1.000
vn 0.000 0.000 1.000
vn 0.000 0.000 1.000
vn 0.000 0.000 1.000
vn 0.000 0.000 1.000
vn 0.000 0.000 1.000
vn 0.000 0.000 1.000
vn 0.000 0.000 1.000
vn 0.000 0.000 1.000
vn 0.000 0.000 1.000
vn 0.000 0.000 1.000
vn 0.000 0.000 1.000
vn 0.000 0.000 1.000
vn 0.000 0.000 1.000
vn 0.000 0.000 1.000
vn 0.000 0.000 1.000
vn 0.000 0.000 1.000
vn 0.000 0.000 1.000
vn 0.000 0.000 1.000
vn 0.000 0.000 1.000
vn 0.000 0.000 1.000
vn 0.000 0.000 1.000
vn 0.000 0.000 1.000
vn 0.000 0.000 1.000
vn 0.000 0.000 1.000
vn 0.000 0.000 1.000
vn 0.000 0.000 1.000
vn 0.000 0.000 1.000
vn 0.000 0.000 1.000
vn 0.000 0.000 1.000
vn 0.000 0.000 1.000
vn 0.000 0.000 1.000
vn 0.000 0.000 1.000
vn 0.000 0.000 1.000
vn 0.000 0.000 1.000
vn 0.000 0.000 1.000
vn 0.000 0.000 1.000
vn 0.000 0.000 1.000
vn 0.000 0.000 1.000
vn 0.000 0.000 1.000
vn 0.000 0.000 1.000
vn 0.000 0.000 1.000
vn 0.000 0.000 1.000
vn 0.000 0.000 1.000
vn 0.000 0.000 1.000
vn 0.000 0.000 1.000
vn 0.000 0.000 1.000
vn 0.000 0.000 1.000
vn 0.000 0.000 1.000
vn 0.000 0.000 1.000
vn 0.000 0.000 1.000
vn 0.000 0.000 -1.000
vn 0.000 0.000 -1.000
vn 0.000 0.000 -1.000
vn 0.000 0.000 -1.000
vn 0.000 0.000 -1.000
vn 0.000 0.000 -1.000
vn 0.000 0.000 -1.000
vn 0.000 0.000 -1.000
vn 0.000 0.000 -1.000
vn 0.000 0.000 -1.000
vn 0.000 0.000 -1.000
vn 0.000 0.000 -1.000
vn 0.000 0.000 -1.000
vn 0.000 0.000 -1.000
vn 0.000 0.000 -1.000
vn 0.000 0.000 -1.000
vn 0.000 0.000 -1.000
vn 0.000 0.000 -1.000
vn 0.000 0.000 -1.000
vn 0.000 0.000 -1.000
vn 0.000 0.000 -1.000
vn 0.000 0.000 -1.000
vn 0.000 0.000 -1.000
vn 0.000 0.000 -1.000
vn 0.000 0.000 -1.000
vn 0.000 0.000 -1.000
vn 0.000 0.000 -1.000
vn 0.000 0.000 -1.000
vn 0.000 0.000 -1.000
vn 0.000 0.000 -1.000
vn 0.000 0.000 -1.000
vn 0.000 0.000 -1.000
vn 0.000 0.000 -1.000
vn 0.000 0.000 -1.000
vn 0.000 0.000 -1.000
vn 0.000 0.000 -1.000
vn 0.000 0.000 -1.000
vn 0.000 0.000 -1.000
vn 0.000 0.000 -1.000
vn 0.000 0.000 -1.000
vn 0.000 0.000 -1.000
vn 0.000 0.000 -1.000
vn 0.000 0.000 -1.000
vn 0.000 0.000 -1.000
vn 0.000 0.000 -1.000
vn 0.000 0.000 -1.000
vn 0.000 0.000 -1.000
vn 0.000 0.000 -1.000
vn 0.000 0.000 -1.000
vn 0.000 0.000 -1.000
vn 0.000 0.000 -1.000
vn 0.000 0.000 -1.000
vn 0.000 0.000 -1.000
vn 0.000 0.000 -1.000
vn 0.000 0.000 -1.000
vn 0.000 0.000 -1.000
vn 0.000 0.000 -1.000
vn 0.000 0.000 -1.000
vn 0.000 0.000 -1.000
vn 0.000 0.000 -1.000
vn 0.000 0.000 -1.000
vn 0.000 0.000 -1.000
vn 0.000 0.000 -1.000
vn 0.000 0.000 -1.000
vn -0.866 0.000 0.500
vn -0.866 0.000 0.500
vn -0.866 0.000 0.500
vn -0.866 0.000 0.500
vn -0.866 0.000 0.500
vn -0.866 0.000 0.500
vn -0.866 0.000 0.500
vn -0.866 0.000 0.500
vn -0.866 0.000 0.500
vn -0.866 0.000 0.500
vn 0.866 0.000 -0.500
vn 0.866 0.000 -0.500
vn 0.866 0.000 -0.500
vn 0.866 0.000 -0.500
vn 0.866 0.000 -0.500
vn 0.866 0.000 -0.500
vn 0.866 0.000 -0.500
vn 0.866 0.000 -0.500
vn 0.866 0.000 -0.500
vn 0.866 0.000 -0.500
vn -0.260 0.000 -0.966
vn -0.260 0.000 -0.966
vn 0.000 0.000 -1.000
vn -0.500 0.000 -0.866
vn -0.500 0.000 -0.866
vn -0.866 0.000 -0.500
vn -0.866 0.000 -0.500
vn -1.000 0.000 0.000
vn -1.000 0.000 0.000
vn -0.966 0.000 -0.259
vn -0.966 0.000 -0.259
vn -0.966 0.000 0.259
vn -0.866 0.000 0.500
vn -0.866 0.000 0.500
vn -0.966 0.000 0.259
vn -0.500 0.000 0.866
vn -0.500 0.000 0.866
vn -0.259 0.000 0.966
vn -0.259 0.000 0.966
vn 0.000 0.000 1.000
vn 0.000 0.000 1.000
vn 0.259 0.000 0.966
vn 0.259 0.000 0.966
vn 0.500 0.000 0.866
vn 0.500 0.000 0.866
vn 0.866 0.000 0.500
vn 0.866 0.000 0.500
vn 1.000 0.000 0.000
vn 1.000 0.000 0.000
vn 0.966 0.000 0.259
vn 0.966 0.000 0.259
vn 0.966 0.000 -0.259
vn 0.866 0.000 -0.500
vn 0.866 0.000 -0.500
vn 0.966 0.000 -0.259
vn 0.500 0.000 -0.866
vn 0.500 0.000 -0.866
vn 0.259 0.000 -0.966
vn 0.259 0.000 -0.966
vn 0.000 0.000 -1.000
vt -6.0204 -0.0023 0
vt -6.0204 -0.0033 0
vt 0.0000 -0.0033 0
vt -5.7596 -0.0023 0
vt -5.7596 -0.0033 0
vt -5.2360 -0.0023 0
vt -5.2360 -0.0033 0
vt -4.7124 -0.0023 0
vt -4.7124 -0.0033 0
vt -4.9740 -0.0033 0
vt -4.9740 -0.0023 0
vt -4.4509 -0.0023 0
vt -4.1888 -0.0023 0
vt -4.1888 -0.0033 0
vt -4.4509 -0.0033 0
vt -3.6652 -0.0023 0
vt -3.6652 -0.0033 0
vt -3.4036 -0.0023 0
vt -3.4036 -0.0033 0
vt -3.1416 -0.0022 0
vt -3.1416 -0.0032 0
vt -2.8798 -0.0023 0
vt -2.8798 -0.0033 0
vt -2.6180 -0.0023 0
vt -2.6180 -0.0033 0
vt -2.0944 -0.0023 0
vt -2.0944 -0.0033 0
vt -1.5708 -0.0023 0
vt -1.5708 -0.0033 0
vt -1.8327 -0.0033 0
vt -1.8327 -0.0023 0
vt -1.3087 -0.0023 0
vt -1.0472 -0.0023 0
vt -1.0472 -0.0033 0
vt -1.3087 -0.0033 0
vt -0.5236 -0.0023 0
vt -0.5236 -0.0033 0
vt -0.2615 -0.0023 0
vt -0.2615 -0.0033 0
vt 0.0000 -0.0023 0
vt 0.0000 0.0330 0
vt 0.0000 0.0000 0
vt 0.2094 0.0000 0
vt 0.2094 0.0330 0
vt 0.4189 0.0000 0
vt 0.4189 0.0330 0
vt 0.6283 0.0000 0
vt 0.6283 0.0330 0
vt 0.8378 0.0000 0
vt 0.8378 0.0330 0
vt 1.0472 0.0000 0
vt 1.0472 0.0330 0
vt 1.2566 0.0000 0
vt 1.8850 0.0330 0
vt 1.8850 0.0000 0
vt 2.0944 0.0000 0
vt 2.0944 0.0330 0
vt 2.3038 0.0000 0
vt 2.3038 0.0330 0
vt 2.5133 0.0000 0
vt 2.5133 0.0330 0
vt 2.7227 0.0000 0
vt 2.7227 0.0330 0
vt 2.9322 0.0000 0
vt 2.9322 0.0330 0
vt 3.1416 0.0000 0
vt 3.1416 0.0330 0
vt 3.3510 0.0000 0
vt 3.3510 0.0330 0
vt 3.5605 0.0000 0
vt 3.5605 0.0330 0
vt 3.7699 0.0000 0
vt 3.7699 0.0330 0
vt 3.9794 0.0000 0
vt 3.9794 0.0330 0
vt 4.1888 0.0000 0
vt 4.1888 0.0330 0
vt 4.3982 0.0000 0
vt 4.3982 0.0330 0
vt 4.6077 0.0000 0
vt 4.6077 0.0330 0
vt 4.8171 0.0000 0
vt 4.8171 0.0330 0
vt -1.2566 0.0000 0
vt -1.2566 0.0330 0
vt -1.0472 0.0000 0
vt -1.0472 0.0330 0
vt -0.8378 0.0000 0
vt -0.8378 0.0330 0
vt -0.6283 0.0000 0
vt -0.6283 0.0330 0
vt -0.4189 0.0000 0
vt -0.4189 0.0330 0
vt -0.2094 0.0000 0
vt -0.2094 0.0330 0
vt 1.4661 0.0000 0
vt 1.5458 0.0051 0
vt 1.5430 0.0055 0
vt 1.5564 0.0045 0
vt 1.6755 0.0000 0
vt 1.5708 0.0042 0
vt 1.5633 0.0043 0
vt 1.5852 0.0045 0
vt 1.5783 0.0043 0
vt 1.5957 0.0051 0
vt 1.6755 0.0050 0
vt 1.5986 0.0055 0
vt 1.5986 0.0065 0
vt 1.5996 0.0060 0
vt 1.5957 0.0069 0
vt 1.5708 0.0160 0
vt 1.5852 0.0075 0
vt 1.5708 0.0077 0
vt 1.5783 0.0077 0
vt 1.5633 0.0077 0
vt 1.4661 0.0270 0
vt 1.5564 0.0075 0
vt 1.5458 0.0069 0
vt 1.5420 0.0060 0
vt 1.5430 0.0065 0
vt 1.2566 0.0330 0
vt 1.4661 0.0280 0
vt 1.5458 0.0261 0
vt 1.5430 0.0265 0
vt 1.5708 0.0170 0
vt 1.5564 0.0255 0
vt 1.5708 0.0252 0
vt 1.5633 0.0253 0
vt 1.5783 0.0253 0
vt 1.6755 0.0060 0
vt 1.5852 0.0255 0
vt 1.5957 0.0261 0
vt 1.6755 0.0330 0
vt 1.5996 0.0270 0
vt 1.5986 0.0265 0
vt 1.5986 0.0275 0
vt 1.5957 0.0279 0
vt 1.5708 0.0287 0
vt 1.5783 0.0287 0
vt 1.4661 0.0330 0
vt 1.5633 0.0287 0
vt 1.5564 0.0285 0
vt 1.5458 0.0279 0
vt 1.5430 0.0275 0
vt 1.5420 0.0270 0
vt 1.5852 0.0285 0
vt 1.7330 0.0000 0
vt 1.4181 0.0330 0
vt 1.4085 0.0330 0
vt 1.7234 0.0000 0
vt -0.2094 0.0330 0
vt 0.0000 0.0330 0
vt 0.0000 0.0000 0
vt -0.4189 0.0330 0
vt -0.2094 0.0000 0
vt -0.6283 0.0330 0
vt -0.4189 0.0000 0
vt -0.8378 0.0330 0
vt -0.6283 0.0000 0
vt -1.0472 0.0330 0
vt -0.8378 0.0000 0
vt -1.2566 0.0330 0
vt -1.0472 0.0000 0
vt -1.4661 0.0330 0
vt -1.2566 0.0000 0
vt 4.6077 0.0330 0
vt -1.4661 0.0000 0
vt 4.3982 0.0330 0
vt 4.6077 0.0000 0
vt 4.1888 0.0330 0
vt 4.3982 0.0000 0
vt 3.9794 0.0330 0
vt 4.1888 0.0000 0
vt 3.7699 0.0330 0
vt 3.9794 0.0000 0
vt 3.5605 0.0330 0
vt 3.7699 0.0000 0
vt 3.3510 0.0330 0
vt 3.5605 0.0000 0
vt 3.1416 0.0330 0
vt 3.3510 0.0000 0
vt 2.9322 0.0330 0
vt 3.1416 0.0000 0
vt 2.7227 0.0330 0
vt 2.9322 0.0000 0
vt 2.5133 0.0330 0
vt 2.7227 0.0000 0
vt 2.3038 0.0330 0
vt 2.5133 0.0000 0
vt 2.0944 0.0330 0
vt 2.3038 0.0000 0
vt 1.8850 0.0330 0
vt 2.0944 0.0000 0
vt 1.0472 0.0330 0
vt 1.2566 0.0330 0
vt 1.2566 0.0000 0
vt 0.8378 0.0330 0
vt 1.0472 0.0000 0
vt 0.6283 0.0330 0
vt 0.8378 0.0000 0
vt 0.4189 0.0330 0
vt 0.6283 0.0000 0
vt 0.2094 0.0330 0
vt 0.4189 0.0000 0
vt 0.2094 0.0000 0
vt 1.4661 0.0268 0
vt 1.4057 0.0330 0
vt 1.6755 0.0052 0
vt 1.6755 0.0000 0
vt 1.5962 0.0051 0
vt 1.5991 0.0055 0
vt 1.5708 0.0042 0
vt 1.5784 0.0043 0
vt 1.4661 0.0000 0
vt 1.5632 0.0043 0
vt 1.5562 0.0045 0
vt 1.5854 0.0045 0
vt 1.5415 0.0060 0
vt 1.5425 0.0055 0
vt 1.5425 0.0065 0
vt 1.5454 0.0069 0
vt 1.5454 0.0051 0
vt 1.5632 0.0077 0
vt 1.5708 0.0160 0
vt 1.5708 0.0077 0
vt 1.5854 0.0075 0
vt 1.5784 0.0077 0
vt 1.5562 0.0075 0
vt 1.5962 0.0069 0
vt 1.6001 0.0060 0
vt 1.5991 0.0065 0
vt 1.8850 0.0000 0
vt 1.6755 0.0062 0
vt 1.7358 0.0000 0
vt 1.6755 0.0330 0
vt 1.5991 0.0265 0
vt 1.5962 0.0261 0
vt 1.5784 0.0253 0
vt 1.5708 0.0170 0
vt 1.5708 0.0252 0
vt 1.5562 0.0255 0
vt 1.5632 0.0253 0
vt 1.5854 0.0255 0
vt 1.4661 0.0278 0
vt 1.5454 0.0261 0
vt 1.5415 0.0270 0
vt 1.5425 0.0265 0
vt 1.4661 0.0330 0
vt 1.5454 0.0279 0
vt 1.5425 0.0275 0
vt 1.5708 0.0287 0
vt 1.5632 0.0287 0
vt 1.5854 0.0285 0
vt 1.5784 0.0287 0
vt 1.5562 0.0285 0
vt 1.5962 0.0279 0
vt 1.6001 0.0270 0
vt 1.5991 0.0275 0
vt 1.4155 0.0330 0
vt 1.7260 0.0000 0
vt 0.0064 -0.0604 0
vt 0.0062 -0.0594 0
vt -0.0062 -0.0594 0
vt 0.0188 -0.0578 0
vt 0.0185 -0.0568 0
vt -0.0406 -0.0451 0
vt -0.0304 -0.0526 0
vt -0.0299 -0.0517 0
vt -0.0188 -0.0578 0
vt -0.0185 -0.0568 0
vt -0.0064 -0.0604 0
vt -0.0491 -0.0357 0
vt -0.0400 -0.0444 0
vt 0.0304 -0.0526 0
vt 0.0299 -0.0517 0
vt 0.0406 -0.0451 0
vt 0.0400 -0.0444 0
vt 0.0491 -0.0357 0
vt 0.0483 -0.0351 0
vt 0.0555 -0.0247 0
vt 0.0546 -0.0243 0
vt 0.0594 -0.0126 0
vt 0.0584 -0.0124 0
vt 0.0608 0.0000 0
vt 0.0598 0.0000 0
vt 0.0594 0.0126 0
vt 0.0584 0.0124 0
vt 0.0062 0.0594 0
vt 0.0092 0.0590 0
vt 0.0092 0.0600 0
vt -0.0064 0.0604 0
vt -0.0062 0.0594 0
vt 0.0188 0.0578 0
vt 0.0185 0.0568 0
vt 0.0299 0.0517 0
vt 0.0098 0.0600 0
vt 0.0098 0.0589 0
vt 0.0064 0.0604 0
vt -0.0188 0.0578 0
vt -0.0185 0.0568 0
vt -0.0406 0.0451 0
vt -0.0491 0.0357 0
vt -0.0483 0.0351 0
vt -0.0555 0.0247 0
vt -0.0546 0.0243 0
vt 0.0555 0.0247 0
vt 0.0546 0.0243 0
vt 0.0491 0.0357 0
vt 0.0483 0.0351 0
vt 0.0304 0.0526 0
vt 0.0400 0.0444 0
vt -0.0304 0.0526 0
vt -0.0299 0.0517 0
vt -0.0400 0.0444 0
vt -0.0608 0.0000 0
vt -0.0598 0.0000 0
vt -0.0584 0.0124 0
vt -0.0594 -0.0126 0
vt -0.0584 -0.0124 0
vt 0.0406 0.0451 0
vt -0.0594 0.0126 0
vt -0.0555 -0.0247 0
vt -0.0546 -0.0243 0
vt -0.0483 -0.0351 0
vt 0.0594 0.0126 0
vt 0.0608 0.0000 0
vt 0.0598 0.0000 0
vt 0.0594 -0.0126 0
vt 0.0584 -0.0124 0
vt 0.0555 0.0247 0
vt 0.0546 0.0243 0
vt 0.0483 0.0351 0
vt 0.0584 0.0124 0
vt 0.0555 -0.0247 0
vt 0.0546 -0.0243 0
vt 0.0188 -0.0578 0
vt 0.0064 -0.0604 0
vt 0.0062 -0.0594 0
vt -0.0064 -0.0604 0
vt -0.0062 -0.0594 0
vt 0.0491 -0.0357 0
vt 0.0483 -0.0351 0
vt 0.0406 -0.0451 0
vt 0.0400 -0.0444 0
vt 0.0304 -0.0526 0
vt 0.0299 -0.0517 0
vt 0.0185 -0.0568 0
vt -0.0062 0.0594 0
vt -0.0092 0.0590 0
vt -0.0092 0.0600 0
vt -0.0064 0.0604 0
vt 0.0064 0.0604 0
vt 0.0062 0.0594 0
vt 0.0188 0.0578 0
vt 0.0304 0.0526 0
vt 0.0299 0.0517 0
vt 0.0406 0.0451 0
vt 0.0400 0.0444 0
vt -0.0188 -0.0578 0
vt -0.0185 -0.0568 0
vt -0.0304 -0.0526 0
vt -0.0299 -0.0517 0
vt -0.0406 -0.0451 0
vt -0.0400 -0.0444 0
vt 0.0185 0.0568 0
vt 0.0491 0.0357 0
vt -0.0491 -0.0357 0
vt -0.0483 -0.0351 0
vt -0.0555 0.0247 0
vt -0.0491 0.0357 0
vt -0.0483 0.0351 0
vt -0.0406 0.0451 0
vt -0.0400 0.0444 0
vt -0.0608 0.0000 0
vt -0.0598 0.0000 0
vt -0.0584 -0.0124 0
vt -0.0594 0.0126 0
vt -0.0584 0.0124 0
vt -0.0304 0.0526 0
vt -0.0299 0.0517 0
vt -0.0188 0.0578 0
vt -0.0185 0.0568 0
vt -0.0098 0.0600 0
vt -0.0098 0.0589 0
vt -0.0555 -0.0247 0
vt -0.0546 -0.0243 0
vt -0.0594 -0.0126 0
vt -0.0546 0.0243 0
vt 0.0000 0.0159 0
vt 0.0000 0.0170 0
vt 0.0069 0.0174 0
vt 0.0196 0.0177 0
vt 0.0196 0.0167 0
vt 0.0071 0.0164 0
vt 0.0323 0.0174 0
vt 0.0321 0.0164 0
vt 0.0381 0.0160 0
vt 0.0381 0.0170 0
vt -0.0381 0.0159 0
vt -0.0381 0.0170 0
vt -0.0312 0.0174 0
vt -0.0185 0.0177 0
vt -0.0185 0.0167 0
vt -0.0310 0.0164 0
vt -0.0058 0.0174 0
vt -0.0060 0.0164 0
vt 0.0000 0.0160 0
vt 0.0000 0.0170 0
vt -6.0204 -0.0023 0
vt -6.0204 -0.0033 0
vt 0.0000 -0.0033 0
vt -5.7596 -0.0023 0
vt -5.7596 -0.0033 0
vt -5.2360 -0.0023 0
vt -5.2360 -0.0033 0
vt -4.7124 -0.0023 0
vt -4.7124 -0.0033 0
vt -4.9740 -0.0033 0
vt -4.9740 -0.0023 0
vt -4.4509 -0.0023 0
vt -4.1888 -0.0023 0
vt -4.1888 -0.0033 0
vt -4.4509 -0.0033 0
vt -3.6652 -0.0023 0
vt -3.6652 -0.0033 0
vt -3.4036 -0.0023 0
vt -3.4036 -0.0033 0
vt -3.1416 -0.0022 0
vt -3.1416 -0.0032 0
vt -2.8798 -0.0023 0
vt -2.8798 -0.0033 0
vt -2.6180 -0.0023 0
vt -2.6180 -0.0033 0
vt -2.0944 -0.0023 0
vt -2.0944 -0.0033 0
vt -1.5708 -0.0023 0
vt -1.5708 -0.0033 0
vt -1.8327 -0.0033 0
vt -1.8327 -0.0023 0
vt -1.3087 -0.0023 0
vt -1.0472 -0.0023 0
vt -1.0472 -0.0033 0
vt -1.3087 -0.0033 0
vt -0.5236 -0.0023 0
vt -0.5236 -0.0033 0
vt -0.2615 -0.0023 0
vt -0.2615 -0.0033 0
vt 0.0000 -0.0023 0
f 324/324/324 322/322/322 272/272/272
f 323/323/323 318/318/318 322/322/322
f 315/315/315 319/319/319 316/316/316
f 305/305/305 321/321/321 317/317/317
f 301/301/301 303/303/303 314/314/314
f 312/312/312 300/300/300 299/299/299
f 293/293/293 295/295/295 310/310/310
f 311/311/311 308/308/308 320/320/320
f 306/306/306 309/309/309 307/307/307
f 278/278/278 281/281/281 279/279/279
f 319/319/319 315/315/315 318/318/318
f 317/317/317 315/315/315 316/316/316
f 304/304/304 303/303/303 302/302/302
f 314/314/314 312/312/312 301/301/301
f 300/300/300 312/312/312 313/313/313
f 299/299/299 292/292/292 291/291/291
f 293/293/293 297/297/297 294/294/294
f 311/311/311 310/310/310 295/295/295
f 309/309/309 306/306/306 308/308/308
f 287/287/287 306/306/306 307/307/307
f 284/284/284 283/283/283 282/282/282
f 274/274/274 277/277/277 275/275/275
f 303/303/303 304/304/304 305/305/305
f 306/306/306 287/287/287 286/286/286
f 292/292/292 299/299/299 300/300/300
f 291/291/291 288/288/288 298/298/298
f 297/297/297 293/293/293 296/296/296
f 295/295/295 293/293/293 294/294/294
f 286/286/286 285/285/285 284/284/284
f 282/282/282 281/281/281 280/280/280
f 276/276/276 279/279/279 277/277/277
f 271/271/271 270/270/270 269/269/269
f 288/288/288 291/291/291 292/292/292
f 290/290/290 288/288/288 289/289/289
f 285/285/285 286/286/286 287/287/287
f 283/283/283 284/284/284 285/285/285
f 281/281/281 282/282/282 283/283/283
f 281/281/281 278/278/278 280/280/280
f 279/279/279 276/276/276 278/278/278
f 277/277/277 274/274/274 276/276/276
f 274/274/274 265/265/265 264/264/264
f 266/266/266 268/268/268 273/273/273
f 265/265/265 274/274/274 275/275/275
f 261/261/261 263/263/263 271/271/271
f 267/267/267 270/270/270 268/268/268
f 273/273/273 272/272/272 266/266/266
f 264/264/264 262/262/262 261/261/261
f 270/270/270 271/271/271 263/263/263
f 270/270/270 267/267/267 269/269/269
f 268/268/268 266/266/266 267/267/267
f 262/262/262 264/264/264 265/265/265
f 263/263/263 261/261/261 262/262/262
f 310/310/310 311/311/311 320/320/320
f 312/312/312 314/314/314 313/313/313
f 315/315/315 317/317/317 321/321/321
f 322/322/322 324/324/324 323/323/323
f 308/308/308 311/311/311 309/309/309
f 321/321/321 305/305/305 304/304/304
f 272/272/272 273/273/273 324/324/324
f 318/318/318 323/323/323 319/319/319
f 288/288/288 290/290/290 298/298/298
f 303/303/303 301/301/301 302/302/302
f 350/350/350 348/348/348 349/349/349
f 353/353/353 351/351/351 352/352/352
f 356/356/356 354/354/354 355/355/355
f 358/358/358 355/355/355 357/357/357
f 341/341/341 335/335/335 334/334/334
f 345/345/345 344/344/344 343/343/343
f 336/336/336 338/338/338 347/347/347
f 360/360/360 339/339/339 359/359/359
f 360/360/360 361/361/361 362/362/362
f 362/362/362 363/363/363 364/364/364
f 351/351/351 353/353/353 348/348/348
f 365/365/365 352/352/352 354/354/354
f 355/355/355 358/358/358 356/356/356
f 358/358/358 366/366/366 332/332/332
f 343/343/343 342/342/342 341/341/341
f 339/339/339 360/360/360 340/340/340
f 363/363/363 362/362/362 361/361/361
f 364/364/364 367/367/367 368/368/368
f 371/371/371 369/369/369 370/370/370
f 371/371/371 372/372/372 373/373/373
f 352/352/352 365/365/365 353/353/353
f 366/366/366 358/358/358 357/357/357
f 345/345/345 347/347/347 346/346/346
f 367/367/367 364/364/364 363/363/363
f 376/376/376 374/374/374 375/375/375
f 378/378/378 374/374/374 377/377/377
f 372/372/372 371/371/371 370/370/370
f 380/380/380 372/372/372 379/379/379
f 382/382/382 379/379/379 381/381/381
f 384/384/384 381/381/381 383/383/383
f 354/354/354 356/356/356 365/365/365
f 361/361/361 360/360/360 359/359/359
f 337/337/337 340/340/340 338/338/338
f 347/347/347 345/345/345 336/336/336
f 344/344/344 345/345/345 346/346/346
f 342/342/342 343/343/343 344/344/344
f 335/335/335 341/341/341 342/342/342
f 325/325/325 327/327/327 333/333/333
f 340/340/340 337/337/337 339/339/339
f 338/338/338 336/336/336 337/337/337
f 328/328/328 335/335/335 329/329/329
f 330/330/330 333/333/333 331/331/331
f 327/327/327 325/325/325 326/326/326
f 329/329/329 326/326/326 328/328/328
f 332/332/332 330/330/330 331/331/331
f 333/333/333 330/330/330 325/325/325
f 326/326/326 329/329/329 327/327/327
f 348/348/348 350/350/350 351/351/351
f 335/335/335 328/328/328 334/334/334
f 374/374/374 376/376/376 387/387/387
f 369/369/369 371/371/371 388/388/388
f 385/385/385 368/368/368 367/367/367
f 379/379/379 382/382/382 380/380/380
f 377/377/377 388/388/388 378/378/378
f 387/387/387 386/386/386 385/385/385
f 330/330/330 332/332/332 366/366/366
f 381/381/381 384/384/384 382/382/382
f 372/372/372 380/380/380 373/373/373
f 388/388/388 377/377/377 369/369/369
f 374/374/374 378/378/378 375/375/375
f 386/386/386 387/387/387 376/376/376
f 368/368/368 385/385/385 386/386/386
f 106/106/106 105/105/105 100/100/100
f 108/108/108 106/106/106 110/110/110
f 96/96/96 102/102/102 99/99/99
f 106/106/106 109/109/109 107/107/107
f 109/109/109 106/106/106 108/108/108
f 105/105/105 106/106/106 107/107/107
f 103/103/103 100/100/100 105/105/105
f 100/100/100 104/104/104 101/101/101
f 104/104/104 100/100/100 103/103/103
f 96/96/96 101/101/101 102/102/102
f 101/101/101 96/96/96 100/100/100
f 97/97/97 96/96/96 99/99/99
f 98/98/98 96/96/96 97/97/97
f 42/42/42 95/95/95 94/94/94
f 94/94/94 93/93/93 92/92/92
f 92/92/92 91/91/91 90/90/90
f 90/90/90 89/89/89 88/88/88
f 88/88/88 87/87/87 86/86/86
f 86/86/86 85/85/85 84/84/84
f 84/84/84 83/83/83 82/82/82
f 82/82/82 81/81/81 80/80/80
f 80/80/80 79/79/79 78/78/78
f 78/78/78 77/77/77 76/76/76
f 76/76/76 75/75/75 74/74/74
f 74/74/74 73/73/73 72/72/72
f 72/72/72 71/71/71 70/70/70
f 70/70/70 69/69/69 68/68/68
f 68/68/68 67/67/67 66/66/66
f 66/66/66 65/65/65 64/64/64
f 64/64/64 63/63/63 62/62/62
f 62/62/62 61/61/61 60/60/60
f 60/60/60 59/59/59 58/58/58
f 58/58/58 57/57/57 56/56/56
f 56/56/56 54/54/54 55/55/55
f 53/53/53 52/52/52 51/51/51
f 51/51/51 50/50/50 49/49/49
f 49/49/49 48/48/48 47/47/47
f 47/47/47 46/46/46 45/45/45
f 45/45/45 44/44/44 43/43/43
f 41/41/41 43/43/43 44/44/44
f 44/44/44 45/45/45 46/46/46
f 43/43/43 41/41/41 42/42/42
f 46/46/46 47/47/47 48/48/48
f 48/48/48 49/49/49 50/50/50
f 50/50/50 51/51/51 52/52/52
f 52/52/52 53/53/53 121/121/121
f 54/54/54 56/56/56 57/57/57
f 57/57/57 58/58/58 59/59/59
f 59/59/59 60/60/60 61/61/61
f 61/61/61 62/62/62 63/63/63
f 63/63/63 64/64/64 65/65/65
f 65/65/65 66/66/66 67/67/67
f 67/67/67 68/68/68 69/69/69
f 69/69/69 70/70/70 71/71/71
f 71/71/71 72/72/72 73/73/73
f 73/73/73 74/74/74 75/75/75
f 75/75/75 76/76/76 77/77/77
f 77/77/77 78/78/78 79/79/79
f 79/79/79 80/80/80 81/81/81
f 81/81/81 82/82/82 83/83/83
f 83/83/83 84/84/84 85/85/85
f 85/85/85 86/86/86 87/87/87
f 87/87/87 88/88/88 89/89/89
f 89/89/89 90/90/90 91/91/91
f 91/91/91 92/92/92 93/93/93
f 93/93/93 94/94/94 95/95/95
f 95/95/95 42/42/42 41/41/41
f 150/150/150 106/106/106 100/100/100
f 96/96/96 98/98/98 119/119/119
f 121/121/121 116/116/116 149/149/149
f 148/148/148 122/122/122 140/140/140
f 122/122/122 124/124/124 145/145/145
f 55/55/55 130/130/130 147/147/147
f 54/54/54 130/130/130 55/55/55
f 130/130/130 54/54/54 133/133/133
f 133/133/133 146/146/146 137/137/137
f 133/133/133 139/139/139 146/146/146
f 122/122/122 143/143/143 140/140/140
f 144/144/144 122/122/122 145/145/145
f 143/143/143 122/122/122 144/144/144
f 142/142/142 140/140/140 143/143/143
f 140/140/140 138/138/138 133/133/133
f 141/141/141 140/140/140 142/142/142
f 138/138/138 140/140/140 141/141/141
f 139/139/139 133/133/133 138/138/138
f 125/125/125 128/128/128 126/126/126
f 130/130/130 135/135/135 132/132/132
f 136/136/136 133/133/133 137/137/137
f 133/133/133 135/135/135 130/130/130
f 134/134/134 133/133/133 136/136/136
f 135/135/135 133/133/133 134/134/134
f 131/131/131 130/130/130 132/132/132
f 129/129/129 125/125/125 130/130/130
f 129/129/129 130/130/130 131/131/131
f 125/125/125 129/129/129 127/127/127
f 128/128/128 125/125/125 127/127/127
f 125/125/125 123/123/123 122/122/122
f 123/123/123 125/125/125 126/126/126
f 124/124/124 122/122/122 123/123/123
f 53/53/53 116/116/116 121/121/121
f 116/116/116 53/53/53 96/96/96
f 111/111/111 110/110/110 106/106/106
f 111/111/111 114/114/114 112/112/112
f 116/116/116 120/120/120 118/118/118
f 96/96/96 120/120/120 116/116/116
f 120/120/120 96/96/96 119/119/119
f 117/117/117 116/116/116 118/118/118
f 115/115/115 111/111/111 116/116/116
f 115/115/115 116/116/116 117/117/117
f 111/111/111 115/115/115 113/113/113
f 114/114/114 111/111/111 113/113/113
f 110/110/110 111/111/111 112/112/112
f 151/151/151 153/153/153 155/155/155
f 154/154/154 155/155/155 157/157/157
f 158/158/158 159/159/159 161/161/161
f 160/160/160 161/161/161 163/163/163
f 162/162/162 163/163/163 165/165/165
f 164/164/164 165/165/165 167/167/167
f 166/166/166 167/167/167 169/169/169
f 168/168/168 169/169/169 171/171/171
f 170/170/170 171/171/171 173/173/173
f 172/172/172 173/173/173 175/175/175
f 174/174/174 175/175/175 177/177/177
f 176/176/176 177/177/177 179/179/179
f 178/178/178 179/179/179 181/181/181
f 180/180/180 181/181/181 183/183/183
f 182/182/182 183/183/183 185/185/185
f 184/184/184 185/185/185 187/187/187
f 186/186/186 187/187/187 189/189/189
f 188/188/188 189/189/189 191/191/191
f 190/190/190 191/191/191 193/193/193
f 192/192/192 193/193/193 232/232/232
f 194/194/194 196/196/196 198/198/198
f 197/197/197 198/198/198 200/200/200
f 199/199/199 200/200/200 202/202/202
f 201/201/201 202/202/202 204/204/204
f 203/203/203 204/204/204 205/205/205
f 152/152/152 205/205/205 153/153/153
f 196/196/196 206/206/206 214/214/214
f 208/208/208 211/211/211 230/230/230
f 208/208/208 260/260/260 209/209/209
f 192/192/192 233/233/233 235/235/235
f 235/235/235 236/236/236 257/257/257
f 244/244/244 259/259/259 248/248/248
f 235/235/235 258/258/258 256/256/256
f 258/258/258 235/235/235 257/257/257
f 239/239/239 245/245/245 241/241/241
f 253/253/253 235/235/235 256/256/256
f 248/248/248 255/255/255 249/249/249
f 248/248/248 252/252/252 255/255/255
f 235/235/235 254/254/254 251/251/251
f 254/254/254 235/235/235 253/253/253
f 251/251/251 248/248/248 235/235/235
f 244/244/244 247/247/247 245/245/245
f 244/244/244 250/250/250 246/246/246
f 244/244/244 249/249/249 250/250/250
f 249/249/249 244/244/244 248/248/248
f 247/247/247 244/244/244 246/246/246
f 245/245/245 239/239/239 244/244/244
f 233/233/233 243/243/243 237/237/237
f 233/233/233 238/238/238 243/243/243
f 239/239/239 242/242/242 240/240/240
f 242/242/242 239/239/239 241/241/241
f 238/238/238 239/239/239 240/240/240
f 239/239/239 238/238/238 233/233/233
f 236/236/236 233/233/233 237/237/237
f 236/236/236 235/235/235 233/233/233
f 233/233/233 232/232/232 234/234/234
f 233/233/233 192/192/192 232/232/232
f 208/208/208 231/231/231 229/229/229
f 231/231/231 208/208/208 230/230/230
f 214/214/214 222/222/222 216/216/216
f 224/224/224 229/229/229 226/226/226
f 229/229/229 224/224/224 208/208/208
f 206/206/206 228/228/228 221/221/221
f 206/206/206 223/223/223 228/228/228
f 224/224/224 227/227/227 225/225/225
f 227/227/227 224/224/224 226/226/226
f 223/223/223 224/224/224 225/225/225
f 224/224/224 223/223/223 206/206/206
f 214/214/214 219/219/219 222/222/222
f 214/214/214 220/220/220 218/218/218
f 220/220/220 206/206/206 221/221/221
f 220/220/220 214/214/214 206/206/206
f 219/219/219 214/214/214 218/218/218
f 209/209/209 217/217/217 210/210/210
f 209/209/209 213/213/213 217/217/217
f 214/214/214 212/212/212 209/209/209
f 215/215/215 214/214/214 216/216/216
f 212/212/212 214/214/214 215/215/215
f 213/213/213 209/209/209 212/212/212
f 208/208/208 210/210/210 211/211/211
f 210/210/210 208/208/208 209/209/209
f 206/206/206 195/195/195 207/207/207
f 206/206/206 196/196/196 195/195/195
f 205/205/205 152/152/152 203/203/203
f 204/204/204 203/203/203 201/201/201
f 202/202/202 201/201/201 199/199/199
f 200/200/200 199/199/199 197/197/197
f 198/198/198 197/197/197 194/194/194
f 196/196/196 194/194/194 195/195/195
f 193/193/193 192/192/192 190/190/190
f 191/191/191 190/190/190 188/188/188
f 189/189/189 188/188/188 186/186/186
f 187/187/187 186/186/186 184/184/184
f 185/185/185 184/184/184 182/182/182
f 183/183/183 182/182/182 180/180/180
f 181/181/181 180/180/180 178/178/178
f 179/179/179 178/178/178 176/176/176
f 177/177/177 176/176/176 174/174/174
f 175/175/175 174/174/174 172/172/172
f 173/173/173 172/172/172 170/170/170
f 171/171/171 170/170/170 168/168/168
f 169/169/169 168/168/168 166/166/166
f 167/167/167 166/166/166 164/164/164
f 165/165/165 164/164/164 162/162/162
f 163/163/163 162/162/162 160/160/160
f 161/161/161 160/160/160 158/158/158
f 159/159/159 158/158/158 156/156/156
f 157/157/157 156/156/156 154/154/154
f 155/155/155 154/154/154 151/151/151
f 153/153/153 151/151/151 152/152/152
f 156/156/156 157/157/157 159/159/159
f 248/248/248 251/251/251 252/252/252
f 3/3/3 1/1/1 2/2/2
f 2/2/2 4/4/4 5/5/5
f 4/4/4 2/2/2 1/1/1
f 5/5/5 6/6/6 7/7/7
f 10/10/10 8/8/8 9/9/9
f 7/7/7 11/11/11 10/10/10
f 11/11/11 7/7/7 6/6/6
f 14/14/14 12/12/12 13/13/13
f 15/15/15 8/8/8 12/12/12
f 8/8/8 15/15/15 9/9/9
f 17/17/17 13/13/13 16/16/16
f 19/19/19 16/16/16 18/18/18
f 21/21/21 18/18/18 20/20/20
f 18/18/18 21/21/21 19/19/19
f 21/21/21 22/22/22 23/23/23
f 23/23/23 24/24/24 25/25/25
f 24/24/24 23/23/23 22/22/22
f 25/25/25 26/26/26 27/27/27
f 30/30/30 28/28/28 29/29/29
f 27/27/27 31/31/31 30/30/30
f 31/31/31 27/27/27 26/26/26
f 34/34/34 32/32/32 33/33/33
f 35/35/35 28/28/28 32/32/32
f 28/28/28 35/35/35 29/29/29
f 37/37/37 33/33/33 36/36/36
f 39/39/39 36/36/36 38/38/38
f 3/3/3 38/38/38 40/40/40
f 38/38/38 3/3/3 39/39/39
f 36/36/36 39/39/39 37/37/37
f 33/33/33 37/37/37 34/34/34
f 32/32/32 34/34/34 35/35/35
f 28/28/28 30/30/30 31/31/31
f 26/26/26 25/25/25 24/24/24
f 22/22/22 21/21/21 20/20/20
f 16/16/16 19/19/19 17/17/17
f 13/13/13 17/17/17 14/14/14
f 12/12/12 14/14/14 15/15/15
f 8/8/8 10/10/10 11/11/11
f 6/6/6 5/5/5 4/4/4
f 1/1/1 3/3/3 40/40/40
f 414/414/414 413/413/413 412/412/412
f 416/416/416 418/418/418 419/419/419
f 420/420/420 422/422/422 423/423/423
f 421/421/421 425/425/425 422/422/422
f 424/424/424 427/427/427 425/425/425
f 430/430/430 429/429/429 428/428/428
f 434/434/434 433/433/433 432/432/432
f 436/436/436 438/438/438 439/439/439
f 440/440/440 442/442/442 443/443/443
f 441/441/441 445/445/445 442/442/442
f 444/444/444 447/447/447 445/445/445
f 446/446/446 411/411/411 447/447/447
f 411/411/411 446/446/446 448/448/448
f 447/447/447 444/444/444 446/446/446
f 445/445/445 441/441/441 444/444/444
f 436/436/436 443/443/443 437/437/437
f 443/443/443 436/436/436 440/440/440
f 442/442/442 440/440/440 441/441/441
f 439/439/439 435/435/435 434/434/434
f 435/435/435 439/439/439 438/438/438
f 438/438/438 436/436/436 437/437/437
f 433/433/433 434/434/434 435/435/435
f 432/432/432 431/431/431 430/430/430
f 431/431/431 432/432/432 433/433/433
f 429/429/429 430/430/430 431/431/431
f 426/426/426 429/429/429 427/427/427
f 429/429/429 426/426/426 428/428/428
f 427/427/427 424/424/424 426/426/426
f 425/425/425 421/421/421 424/424/424
f 416/416/416 423/423/423 417/417/417
f 423/423/423 416/416/416 420/420/420
f 422/422/422 420/420/420 421/421/421
f 419/419/419 415/415/415 414/414/414
f 415/415/415 419/419/419 418/418/418
f 418/418/418 416/416/416 417/417/417
f 413/413/413 414/414/414 415/415/415
f 412/412/412 410/410/410 409/409/409
f 410/410/410 412/412/412 413/413/413
f 411/411/411 409/409/409 410/410/410
f 409/409/409 411/411/411 448/448/448
f 395/395/395 397/397/397 396/396/396
f 396/396/396 392/392/392 395/395/395
f 394/394/394 392/392/392 393/393/393
f 392/392/392 394/394/394 391/391/391
f 397/397/397 395/395/395 398/398/398
f 389/389/389 391/391/391 394/394/394
f 392/392/392 396/396/396 393/393/393
f 391/391/391 389/389/389 390/390/390
f 399/399/399 401/401/401 404/404/404
f 404/404/404 402/402/402 403/403/403
f 406/406/406 402/402/402 405/405/405
f 405/405/405 407/407/407 406/406/406
f 402/402/402 404/404/404 401/401/401
f 407/407/407 405/405/405 408/408/408
f 402/402/402 406/406/406 403/403/403
f 401/401/401 399/399/399 400/400/400
