# vtk DataFile Version 2.0
Unstructured grid legacy vtk file with point scalar data
ASCII

DATASET UNSTRUCTURED_GRID
POINTS 372 double 
23.4817360420889 11.997565812004698 97.47016501453051
93.18532604152972 10.263485472192537 37.09657043661331
105.7050501097452 8.793350674177772 171.4705761480076
22.60412723166477 9.335424028943063 155.04311879831366
44.446546500514145 10.100276615009816 126.43257159460117
81.22438708383224 9.451210452025268 158.84278772703016
51.0822840280817 9.53607950167466 147.90820276148165
74.56570022185598 8.878841798468121 93.4925546954106
55.363153121814065 13.919892857831297 91.82808704594945
41.18546938703679 10.12413044986515 79.50249726484016
69.48835795042726 6.4340958681237685 35.4663201095557
40.950961745202676 11.27865983659989 108.88951281930083
16.766706625812837 12.268085228854428 59.04975147144819
100.71478024895272 7.116533520656461 152.21173398628937
97.47830679330785 9.779340429864877 7.206796783418904
101.61405019982315 12.630371159644103 141.31839695374626
79.96793784126321 7.1536259338899635 172.77145973396813
37.737758998537196 7.584647390927128 6.430497068972167
61.2813113519908 7.72977959454269 107.63465336632784
72.59666773893218 14.155492487646038 28.536265162417582
65.5592143141214 9.666075072722327 49.72699610855962
72.24884050862843 11.075937423593093 17.31832862202415
18.819735539141725 7.976851513170402 106.28089184627677
27.101472121815757 13.788990013478116 77.90878719418313
31.120519409706837 10.797232126173075 47.85447830631456
79.62942820379449 6.679954261482187 104.23135480980223
17.04581607624444 11.507895647916639 42.971652448226905
25.948979520952445 7.9355461900235404 140.10821977757539
36.89454080558311 14.821830199015942 141.8857458388601
17.85047577738301 7.718999536544718 76.30476067767407
59.78830125643916 13.486902324799216 142.73746794809637
81.01096554972601 12.73112726727367 120.07263512951606
71.89292833508755 14.07736068333352 159.09935074876395
86.66840607750795 12.397659741012072 129.45575931988094
39.07885244858496 7.442653510748304 161.42076818947473
102.003529458704 12.304548263847579 93.85719741654565
44.01685322565159 8.107649252815765 19.95746983630756
51.917517665554314 9.769364773345208 82.75459985757479
50.645840335527055 4.65605101884892 52.59928513210447
16.95178122485872 11.619686683068 6.616634120327811
20.174952516602794 6.820549807627527 27.267503317885165
41.612877171504 7.4177318583052205 54.180189871831395
90.56945784759031 13.602146936443782 24.39827598344118
59.737161594937554 8.965088284678059 120.28006607649655
48.83101503002582 11.41474966541943 28.657900755307125
56.97430739224801 7.7529392984999 13.146991315743922
88.86359222599764 13.900037072564865 66.18653900129975
86.1152364818314 7.442735428332922 49.32943193062561
63.35259910109351 9.769166139301788 84.75249359768695
30.913681062959114 8.593520952688873 59.07705838016003
72.06775504238274 5.007627096693545 126.82692545527217
39.68337699118511 10.566751128645686 174.7056325438983
47.27682986992414 13.586288965254502 169.62544989410057
32.355701911361756 7.922009907821227 117.60178373869377
33.122405751410106 8.84050168295295 29.164145956146992
59.98823286690569 7.224118648373925 166.60031710793092
61.74230895970631 8.140028090945922 134.79242139686195
100.43130481427602 9.047931051857828 55.22739444371992
54.08790458834256 14.321225874143266 52.90739901805314
95.45098642152713 7.16078594190531 116.60001802097807
55.65463814569188 12.552848894157027 66.88731480195054
99.56742115654508 8.199174226371358 82.69471574711001
44.24235554526946 13.33760548303113 153.80064044212403
76.6167271191443 10.359155050814026 42.02672758631471
99.00266830197071 13.483302766961671 165.59751951347602
89.99855718695817 12.839281602709342 168.12288036484264
105.46300330478557 9.075422127425815 18.080491859771882
78.90369103127361 10.55065638963834 6.872643417780671
93.5573415062446 11.827558102227153 89.14927069330123
66.22013129158998 8.251863657639628 151.5064968054594
57.69231148021239 7.925715946254502 24.587901060455025
42.70091372881146 13.628213363782898 39.866707216388534
49.78255346172609 11.134388339619525 4.295593395581842
32.085720204360825 6.657722586398576 83.81787143430566
106.68389974290713 11.79339977618264 161.83541130359288
90.571980127078 6.253310526563036 17.500884929162687
70.1094935587588 11.898164078825545 174.3566353446354
97.4275167233446 11.413128690324259 128.51732112381262
74.51711897373168 7.6226354279797555 142.35962357748915
44.383897993817776 6.896555952073531 68.82563279149161
77.23626412243209 6.106716499930826 69.4388266209812
60.25994984090527 12.565300284684717 157.9876030743065
51.07484363592398 12.863681371190902 113.21491766675936
102.86183115481053 5.440398394939874 37.952476643083095
24.457007599507623 8.100017988501822 166.69906583122312
15.719100509516304 12.939737385105143 126.36895171782639
85.41958688239569 4.369977488456951 133.4983470009321
103.17322012701595 9.375855605900531 28.034399288898804
47.3436353004384 7.1803738720761245 101.57660896035527
51.32439239564775 7.183566076989423 158.440939767347
28.15717768732571 3.7345650475988625 94.47828306533745
86.43524549238474 6.3431823804699325 91.73721354664148
54.93497656436167 8.723502218728996 38.49256883828984
87.54197948949599 6.866868715506262 72.15013144011982
37.79608170697862 5.678574630129939 92.69507851878883
97.34674909346613 14.095356200049483 71.43384353518074
16.548514538928103 6.556643953096989 139.7886025966947
32.5249872761774 12.10783236122332 167.35111007871274
28.581545323547722 16.099794627344906 173.93910356845515
15.28299623299143 9.997349533877628 16.327937005391078
23.039102121941706 6.28427609458689 129.6129212808562
24.660307409614234 14.965908787803759 127.31101411878636
92.60678663147343 14.827790393826547 97.61553777512655
29.188018679661027 12.302206759664394 67.12182705816147
97.44017632222668 4.805976941029382 136.8439081194018
87.5823327628644 5.88428181541964 99.8738921383492
62.550817732448095 15.303406659767774 40.67301700750444
63.358421452139204 13.269939108208618 74.53238994930982
38.5573695167215 5.496233552291767 42.73783484099638
20.0335857142586 13.376710662641052 171.22277186173477
103.19007240229618 10.860963816625603 102.63419333722977
68.81613807422235 12.800968993015623 66.87487345342647
71.36477675021031 10.942344710713527 135.24365371967727
88.62690521724966 6.0329355770604485 9.342974198979825
90.16652358184649 9.080811527245048 155.15480311958174
45.76294118608533 13.754157537116175 140.37306227495247
76.96872306066342 12.915947787491426 82.14142080950302
112.47408548974227 7.993455925337872 13.545028432887833
16.08785852832345 6.5494574996942845 86.12626624200414
33.22949263487703 13.364457899877069 124.89317301750141
98.32789757330615 5.494007403660572 161.28418471844682
7.683045871474936 9.217389818326007 172.6556552176187
106.59689632897202 9.357362237554959 6.493630285368845
34.122750293139774 13.38387127489883 14.968255344578385
70.20189253667073 16.281548362841363 89.55972850330419
41.515893403503995 7.470471063982954 145.22380380464762
8.939957048367111 14.035571191747367 13.426419278004891
71.3734375415799 4.936771470165868 165.5207769989998
74.9284369038732 4.925286206072979 58.520703578212135
8.138594788357572 6.752271850103848 10.27258340597648
29.88482611564427 13.32823577381371 158.960122994467
87.64443568819537 13.561313209823414 140.97588867842174
11.671872028283591 8.205791276346742 161.31085542821327
95.1255435653531 4.847498127067332 175.4937200007071
82.71951098241749 12.033033606047884 34.07251064782609
84.60642127271885 7.351352223084429 111.49910680262201
22.592862452903777 14.440085993896936 52.39577712639499
83.36126453186576 11.852227573211312 149.2292007874272
77.31608743450082 12.664398602927232 62.526887130174835
99.33444024637288 9.067243849378094 46.248036336160744
88.61256971999416 15.714654445398965 13.729328977150793
67.4501213436751 14.94425855102393 5.158038388695296
39.536032060499686 14.508300835214609 93.8331393648919
32.556829695310626 5.445652609182399 14.524134593329869
49.596837423718824 9.766944864845835 135.0957265221115
83.39502630128327 9.53710721689618 15.01281423392268
57.962637038858055 14.19327123847217 3.784961043070171
23.22739183446926 4.821603912459737 69.08356922793963
92.68591695175425 8.11076721980156 143.18731224853065
57.96703038826239 3.796438730344832 5.179648453727422
28.006457746755267 5.3228394903236165 36.831505710808386
65.58639727427021 8.713891083873103 25.904989510997925
24.5575244718194 9.216293275701615 17.13472166472544
17.73971701142319 13.504490236881356 113.50658131191736
74.81874074878756 15.075584463688212 107.97751493014738
59.08117388435575 4.9439491148521775 67.79558997632557
78.07147552065132 15.792883886415044 70.85349212641776
70.29504138758378 6.187371534544533 101.3932778018186
52.135609281505545 5.20486723386243 129.3396607651972
37.33834442321985 7.010328001814967 64.12991563463464
27.684683546409033 4.998237137451136 4.356006573695103
32.303726345423115 14.736251625450844 101.25737776114283
67.71724285184938 4.397365235921172 174.22043042128212
46.30906091341839 15.82451595395914 100.83061935113058
21.732245507062316 6.95980470324801 114.84876893226769
19.957020692253895 5.672822877298393 174.56657680191188
106.00559292191878 16.743059670119745 45.20573829097609
27.67174046537365 6.21870312312272 106.84133672462838
54.75195784465797 16.168473848081632 15.75422773040213
35.6594950227888 6.014513118344837 73.16361665925557
86.13825079002247 7.7695091918157635 61.013772650934065
30.189926403506774 4.200400757807657 125.09842374846365
94.74921804607192 4.45574972683297 76.02941983486808
16.64274629445586 14.924364014447912 163.0692533938922
32.35772687713733 13.641383752420838 108.75411041761153
75.29375614921227 4.657440396941458 50.691899751870515
49.211941992867075 14.184988510187203 61.43319728905414
67.89400139278276 7.3511343088055074 8.248384580822552
97.13506990674017 11.511117312444648 62.30477272931353
22.346984381969534 14.150661698572899 146.14894854231525
94.44922521016497 15.931660859915826 107.23289499515904
58.07028270001933 15.13029693151607 166.45755115521177
40.348203486454025 13.946186285085686 25.158292275608943
87.5318889765496 15.505485693174371 3.2078074567607278
33.99336524223745 7.285874241748211 134.04391516400054
98.32086450941458 15.923611479427585 175.45308213634942
28.83961520061599 12.543986439793429 38.276674323413914
63.66049502681674 14.125784484762676 14.864855973624596
73.56348724355719 5.352557021612502 116.93989200606525
66.19304380584526 14.555663116636186 99.63951244532497
23.46034981763263 14.768203067783498 109.06602293163873
53.12409781985845 13.702124576862055 74.74928868680146
8.614972214323814 14.144702165921153 166.96950903706804
78.35882122778716 11.689849601400246 54.77688893656119
14.154336096837508 14.363422236567022 96.13833600019993
63.20084567750359 5.665798236302548 74.24446645706873
76.71100037421236 4.144510583395556 134.51310500421823
13.84530048336148 4.573777561547886 47.62345924513262
83.36292125630544 4.846987734948024 145.5806697651674
114.35747774586982 14.681583744582062 170.33089110672933
56.31571115469343 7.52375446981416 174.2120330862525
63.13079921213493 14.655515015164909 22.01524748950693
15.01760617604723 4.230251856828407 129.1615365507675
95.63726292692778 15.884650120322659 122.32386940125849
86.71273090496028 15.97761344464915 53.074987857650314
86.70385881422787 15.296599678241957 76.08870457368654
52.45160985362714 15.241709594000792 121.00874687733598
38.18107071291363 15.288790387270597 70.73683986786341
81.27159462936744 11.915189390026308 22.007170334362495
104.11232729126378 16.391035721647576 61.70268794184015
22.712131842860366 14.422932404734382 24.147440322573168
15.64921544425422 6.043829523022065 95.00818491237959
63.69415545150108 14.04188174628747 58.107239922758616
106.42156960902555 3.717657651641973 44.658858445152596
24.51091537590266 14.0499471172073 11.702392022416035
56.42579473749066 16.785636509741536 130.0509118857599
79.62689487719665 14.358419256686531 98.12807261165865
31.320826248585433 14.299669213547702 3.9988225686194143
82.50065458445818 5.743489709134754 85.03239248774001
37.35649903210703 13.351306712509242 58.94459321850665
100.40561525809974 4.7553120455713795 125.74458118569184
61.740912432376305 3.243445091950284 145.89344124929707
16.844285356182375 14.012906991262092 87.46317490476862
16.27322327639523 5.354183124417965 147.57215007677615
39.39641450351093 16.675862893874758 159.5031389797091
106.36633221083078 4.947978130814943 94.87634195805691
42.66268105234564 6.762838953044028 34.57051124313526
47.62228625715109 5.152320301856782 40.427905880368684
81.55432327544864 14.819463013590097 90.71191573642994
74.52290316320641 15.216183033076938 143.2040507011243
101.1739255584808 4.981179565860176 66.97032547858377
60.340869040975136 4.009680371916863 40.58426608460479
83.09238758759558 15.50722997000437 109.33850124743714
77.7117435648214 12.64050195016573 131.0020825501621
17.720035817656715 13.851236014062607 34.54668742997433
23.709749342784686 10.230161225746825 88.33848431109348
15.844948101708718 13.46871050142679 149.58077478229106
82.05018902883943 5.198944151998612 36.74534592847489
104.90859178245003 16.22393857907508 132.7589921138277
45.37334788951834 7.234633001434927 88.66917990210307
59.77432397735766 4.7407729845566005 156.10477323673788
112.68678331135321 14.868561814870496 16.900360879929064
83.39343544194836 6.626341926800217 27.59700154162486
67.17230404586431 4.02266258780572 62.00565309725838
55.47998142503074 4.526612484877643 99.63219581673552
16.133710925637423 16.609664326890226 80.87083275202338
16.778365730586007 8.053906130327736 67.66234726040148
104.62655300764473 16.020644144511305 150.50513419344205
37.630228420750136 15.62891835402268 50.30308281410765
46.96217211726772 6.7671345869809265 117.29661218574707
18.526421250646578 5.963268513068374 121.69377267102139
67.97043436475708 13.29747249691724 144.89220739778523
106.17068936465662 12.786984504544279 79.53808194476532
51.919918981949294 3.627350520772536 76.68953421857123
31.072190567106222 5.007698158401902 169.07087819674442
74.3187990560095 3.924109160599495 27.693099311353173
33.11997492934854 8.819269099282538 21.130624496575905
74.32391309653772 5.84117536939245 76.62364328968536
6.171272614963846 5.278273460071104 166.7354545005756
61.93454411430605 14.957337557887618 114.99814643740527
94.29089373705477 13.864747838986855 147.41940636452776
12.94110174949397 10.271132854284014 24.595241644299673
97.48057842415349 15.593401035640465 14.696674039082765
90.2756429355634 13.88700496085988 118.3586191697302
62.90192410189805 5.237816911899213 94.70850262725035
81.66459420144415 16.63011916807141 16.109377371392906
67.76148710758142 15.621801944831269 35.507652017278076
37.79803249930609 11.316853709045102 87.46206517053716
98.32578659505961 14.905334241367434 156.4895558498631
32.045677058056505 7.492399192904194 153.79124429244402
106.29033180777219 5.635272097384581 75.20109069263808
58.47587021832893 14.890217366321028 31.271156194659245
49.34661129466616 3.3571989164131266 173.82707627688993
88.02876930932213 6.170326941086731 118.88690508103025
45.700760957341615 9.759971069428158 46.434015207889644
50.8907609794576 12.587540575782963 20.55877521183368
29.887492979543644 5.40284754848279 159.9321379925111
31.302280679344676 15.917577563979355 56.08453385289605
82.21002817129708 14.233367652884727 168.11100194334227
16.60328743167663 12.652034826782236 134.03434986583406
13.283749163115752 13.394068004967501 50.476947204097726
33.1887033796835 15.057055894948974 23.16388179882531
90.27489082686824 11.303325848027455 110.09122961813372
103.1730729271773 14.226138564060113 34.11476578595907
51.76132798399298 5.071522918133933 68.00656136810663
37.69259384204686 4.658273205003514 122.20260795258234
93.2766512089837 4.832263183502263 28.67148774538178
84.790218408457 14.685183947634847 44.984015249056235
71.12327921764265 15.936118342666626 53.34138672688371
106.4725282268248 16.006557947983854 121.89959294649185
88.45384399288346 16.033360223936988 155.29837831607642
47.25838020668529 13.793258750258191 70.60677679766671
93.77097710781895 5.57870933796573 64.37713250686069
103.9388619465428 9.770961032021336 120.21056451414631
40.11832440251882 13.299851499566058 119.48676094666305
32.72633307361025 4.570033007037173 101.27451134456653
106.03639751955134 6.4055570643922835 87.61109282585304
41.51534965782424 4.881559812733521 137.58646403896003
19.1277489520564 3.2587238363582243 11.278491856169545
54.698444383107656 15.25800004208931 44.67826547235832
72.83864700108903 13.65372210270614 117.46884322476195
102.4953745653778 14.879119446908554 112.3336685738177
15.835854808877862 3.6302868029115394 38.01130259499271
28.580867930232515 7.421610301056763 174.85220345554805
82.28283038045524 2.94671955550614 5.721242605147579
53.090718324622095 15.16049749651455 101.2877829673252
13.669725799013316 4.504581775193328 62.12065190113797
41.04175195816798 16.457712344063513 12.460567116480274
70.29368064329523 6.907343892377247 108.8188451430285
88.01788509705509 15.359009253448741 175.45847209746555
53.12558853105726 4.808600637346602 117.88970242770333
4.896308285935979 11.899974111381693 6.148969901790953
99.4658684982803 14.225915931784115 21.082748222868048
68.81036597990557 5.519840820346607 70.24149135520106
60.49445205920186 5.9564907564129985 127.54049207871867
39.48749792866893 7.775938129589387 100.97790522821144
73.7212776687421 4.831524986162803 157.07419611797425
27.639938057709532 5.193647055706559 147.74790590484133
56.31195581944496 14.822596992334853 174.57645286465254
64.73996847054454 6.172615865966954 19.46110436208219
36.89642990021602 15.05524641223525 132.1441053393911
28.983379642632187 15.048051437871111 31.32980326731686
87.99767305674347 8.019518333448232 175.03955688247828
47.2803674195535 5.165401911444861 167.7425245203873
90.00375997928772 3.452132846957891 168.62123240350238
91.68525835790928 4.1525936032281505 105.37920699781291
17.853583681081354 16.07838706103073 73.85285405870036
81.18849931338178 3.1541743462681593 116.98552935356355
71.37875751783842 15.577435157888178 167.9052559860305
93.5628671619331 4.950312898730864 94.41896344458503
48.06795560292468 13.254999345063169 14.620561552180726
21.82134103495506 15.179783201968633 138.4739214757335
65.88542655883138 4.443215024093066 114.15542493858332
91.44795141806398 11.791681178249341 80.95654818839422
54.93535301440953 5.681033026567976 45.688364302243386
114.99617189702253 6.456982149206328 163.77806062427896
13.45302408594053 15.905306121895997 66.58689696749194
83.39074348054227 15.705465900994065 28.114101645501236
22.22910528608561 16.770998608710734 38.87665743898236
48.74395740714425 4.776043178052256 109.4347476881039
15.452538650913361 15.856169209726088 140.7449163009072
102.62543169954387 4.3535004413881655 110.22160670877561
42.386700753119484 13.798417722187981 65.07513998800594
57.012941313395785 5.309468545620151 91.76236402835988
107.34529612069619 4.390492327487025 116.45856755219631
96.54810959828038 8.342935378882935 23.842430006770112
36.7275774712308 13.265640972096797 149.75590655475045
104.79271254893538 7.3979160601127925 61.96876872833252
103.064161296186 7.735796838728939 132.78695163409247
40.76608330389097 7.446266179045173 28.25650029813653
38.9817311760421 7.0212830595497255 152.62094062732407
88.44982634421369 3.571880816172681 151.2379514196059
14.567338634250602 9.911069662166257 167.89329481593242
78.6408100672671 3.8957552481205635 20.704893595428878
99.92749591535987 4.969241382180613 99.88542795670128
12.86975184611208 5.820373036851748 3.3736776579661254
66.91300902516458 14.912487416852809 108.39403064155768
27.771470297198462 2.663080240225034 47.337244172675184
14.695785090588394 5.554517007122773 155.30487172323268
32.079164862906836 14.445858911766102 89.6200878813555
58.13022455163082 14.992620139948382 81.53241131550618
53.4784456611503 4.617413754698883 139.61623085828046
26.547905785843614 4.960430034664652 22.789631466044924
99.16565749581606 15.446650397836548 43.33670193252464
99.91452045312502 16.230895910796058 52.15402974980182
45.27507985723685 5.083646960512158 61.466032462331164
62.433056415118386 13.734603427070436 127.38609941471384
48.10235708043588 17.27403687044912 146.34740830933652
107.3392830306825 15.925631486669717 22.809550119537978
48.33425301867371 3.5544174894133964 9.827257188412505
72.06515337495196 15.235836609329978 129.28028346873336
33.5805907435395 15.743401648606737 116.4980957022025

POINT_DATA 372
SCALARS Diameter double
LOOKUP_TABLE default
9.937629331505018
9.932540699214616
9.823127618388956
9.659061548827339
9.649728008169214
9.64065892606367
9.633624031738123
9.624614999933517
9.585409890486353
9.486033472815683
9.459960090929515
9.447364381166386
9.357015834915511
9.342068180826201
9.332032991284063
9.3000151163783
9.226619261406992
9.217244664713073
9.177143477743101
9.146915024682265
9.115352489723126
9.061304259001277
9.04423514323156
9.03966460593543
9.034274286103505
8.908249127699744
8.840565470318701
8.769763201394191
8.732441255776678
8.698618961622426
8.679712713972737
8.670206033105753
8.667093640596157
8.640152996486455
8.63747558260475
8.57492381777406
8.552293292711994
8.514936438363323
8.496292150475728
8.458057098375956
8.447141827106636
8.420843092193689
8.355080301217058
8.263536502066426
8.257969040270792
8.226837869811432
8.196774363953484
8.171785977648465
8.13429892761086
8.127472309338227
8.103751660614186
8.102968776982914
8.062205492946903
8.021704917910862
7.993018495849401
7.9595394161680595
7.952186636846889
7.941810791863746
7.891200056089518
7.84902378234464
7.806873538667355
7.802741027591793
7.796335765980961
7.789431460563129
7.767279487601523
7.764555894086876
7.7559470799252805
7.755081283965193
7.7021572155124645
7.688460572652963
7.633277941947462
7.542205786400292
7.528092720604427
7.519948938771873
7.4745031673101305
7.465991512458076
7.428825646582098
7.426805017958927
7.419241328786857
7.395274212086495
7.359323838133247
7.351374743402732
7.348278857257931
7.28931531668255
7.279656475167094
7.2562831385975635
7.23830669539886
7.2375082284872585
7.237087456166008
7.225885598858177
7.163891264315151
7.157022077846946
7.14687710906307
7.133303674345452
7.110454049215454
7.108512374182063
7.096571960904128
7.095404489008084
7.085315998945178
7.083781038071599
7.057376870854723
7.056547281239068
7.0134417832303235
6.937604878086066
6.910432014936676
6.886331557295756
6.87477336035567
6.872755440780186
6.8562208084140845
6.843109263386459
6.84024027939233
6.839288496644022
6.825020148501142
6.82384314900046
6.806689502382278
6.782696769410941
6.7807622444506785
6.772649122609091
6.771684742208915
6.757088159778796
6.755721901579549
6.740510873172916
6.738054352433832
6.725950044119821
6.703414879134258
6.690360229806755
6.686105333518122
6.683822802419818
6.663843642880638
6.660964636160362
6.651718667184101
6.647013949928406
6.644628310897765
6.63120147976384
6.617773288152073
6.617231432179562
6.539351437156763
6.537535126012013
6.533194623161721
6.527145958533991
6.510040954805469
6.501255708846049
6.4958041881395365
6.48473203663376
6.476663914879097
6.474740476008927
6.466213762010769
6.45250584021414
6.447374673151799
6.438593648370824
6.430579811027713
6.4270041588547215
6.424188736451418
6.418780932209086
6.417626473489992
6.394841794019506
6.390869300815386
6.390125918495599
6.383639982239201
6.381087551915945
6.370919540888083
6.3484760160547795
6.315174999031921
6.299476549923213
6.2975255974967626
6.2962380957052835
6.294379566610352
6.290356382066292
6.289174845238355
6.280118049750464
6.2731496503187945
6.262354684680425
6.243194176503203
6.242632427804358
6.220465855655558
6.2093521337818425
6.200547087603876
6.188445977515203
6.1785039238860495
6.176408906873537
6.165413886903602
6.163035067588478
6.152439105915947
6.151441693958888
6.1387780323233345
6.138660745642888
6.134780518354013
6.124901607450541
6.121440697404411
6.105550805403778
6.094271337418374
6.079447799853636
6.074836068238652
6.062364730275221
6.054881003217228
6.05177254349549
6.048682817733081
6.045990015225305
6.033118299519416
5.992382801525632
5.9898374800025
5.982838742477091
5.980070597798912
5.973733160000721
5.972734383256157
5.965681240170922
5.953725482132145
5.95195907564751
5.950234602636073
5.948421927998187
5.944802957619312
5.944059057586918
5.92890695142128
5.928441867397777
5.923194921146878
5.921924032979184
5.901764889888072
5.884045703547906
5.8813551701650715
5.870165149444012
5.868892204908836
5.867751395207489
5.84919675156386
5.844356204226507
5.826356133444347
5.816836379818366
5.812881167963485
5.811072789522191
5.810435885903615
5.79941092572578
5.790570034155012
5.78485994758598
5.778753191140863
5.7766549631780215
5.766978125755029
5.750070635046065
5.735670796150217
5.7297502340954445
5.710627372011144
5.68338238909892
5.670253914877039
5.656719660811902
5.649246563590767
5.639650339615875
5.637697449941666
5.632874037910781
5.629733167551065
5.625931461338027
5.623871142939848
5.619072098287675
5.613294106456339
5.612916421969562
5.5991624779470195
5.597726782172075
5.591607916023024
5.589065896690051
5.587735868253266
5.58247250111379
5.577614128529586
5.568359679592585
5.551586648103352
5.545983606255575
5.545502124534289
5.543430520476306
5.541052135929114
5.539819715139575
5.534207991600298
5.516153893773712
5.511035121883667
5.5074790664208795
5.506314760593241
5.504506885657675
5.496907867431973
5.486612354693338
5.486495173943423
5.484328975259808
5.476358735152088
5.467001467206786
5.466974052137576
5.466437864972413
5.4604810841678315
5.458526854899111
5.452339320734719
5.450533321086367
5.450483658728563
5.4499720395813425
5.439219862887001
5.424239458765165
5.421521562476883
5.417157428761285
5.41072350871067
5.404751536479121
5.400842639933209
5.399098637832114
5.39630179232526
5.39591395419439
5.383501043834374
5.381927270101011
5.379401262174479
5.379340282961465
5.378885626247919
5.378288623274382
5.375257700666118
5.3664290414575735
5.3663836424360145
5.359070128556289
5.356462492931292
5.352819649338144
5.337525176712804
5.335944202159797
5.332690656688492
5.322137477634797
5.320774836547515
5.319206413897366
5.316860842840184
5.310340314727072
5.3065540448209205
5.2915188053310525
5.288255741779423
5.280764675136712
5.276877430908994
5.272425901671425
5.269915855970032
5.264043945800639
5.263857076366751
5.261731821727116
5.257236514881187
5.236072058662961
5.2295945512262225
5.227223826865818
5.1979481403870835
5.189533637428408
5.185877864925713
5.1727777523119975
5.172020263193062
5.161990831021106
5.161018000776604
5.159663383273346
5.158899761276263
5.15876439655438
5.152797294677263
5.152424340300921
5.152171685862658
5.146148662612633
5.14576995378926
5.145735704739522
5.145430847885
5.135232433821474
5.123469585760834
5.1092304475821395
5.102793100046065
5.097408287354367
5.082078001022122
5.080794683358555
5.079948040057662
5.076421342925846
5.069773473049236
5.067707617181312
5.066910924125238
5.047048307268087
5.045588215974525
5.045557230169264
5.036346760806824
5.029923374442268
5.02950751409606
5.029488016772142
5.028211846699492
5.027502326866183
5.026462550898315
5.022941730376303
5.011859946844489
5.009705626462182

SCALARS Material double
LOOKUP_TABLE default
1.0
1.0
1.0
1.0
1.0
1.0
1.0
1.0
1.0
1.0
1.0
1.0
1.0
1.0
1.0
1.0
1.0
1.0
1.0
1.0
1.0
1.0
1.0
1.0
1.0
1.0
1.0
1.0
1.0
1.0
1.0
1.0
1.0
1.0
1.0
1.0
1.0
1.0
1.0
1.0
1.0
1.0
1.0
1.0
1.0
1.0
1.0
1.0
1.0
1.0
1.0
1.0
1.0
1.0
1.0
1.0
1.0
1.0
1.0
1.0
1.0
1.0
1.0
1.0
1.0
1.0
1.0
1.0
1.0
1.0
1.0
1.0
1.0
1.0
1.0
1.0
1.0
1.0
1.0
1.0
1.0
1.0
1.0
1.0
1.0
1.0
1.0
1.0
1.0
1.0
1.0
1.0
1.0
1.0
1.0
1.0
1.0
1.0
1.0
1.0
1.0
1.0
1.0
1.0
1.0
1.0
1.0
1.0
1.0
1.0
1.0
1.0
1.0
1.0
1.0
1.0
1.0
1.0
1.0
1.0
1.0
1.0
1.0
1.0
1.0
1.0
1.0
1.0
1.0
1.0
1.0
1.0
1.0
1.0
1.0
1.0
1.0
1.0
1.0
1.0
1.0
1.0
1.0
1.0
1.0
1.0
1.0
1.0
1.0
1.0
1.0
1.0
1.0
1.0
1.0
1.0
1.0
1.0
1.0
1.0
1.0
1.0
1.0
1.0
1.0
1.0
1.0
1.0
1.0
1.0
1.0
1.0
1.0
1.0
1.0
1.0
1.0
1.0
1.0
1.0
1.0
1.0
1.0
1.0
1.0
1.0
1.0
1.0
1.0
1.0
1.0
1.0
1.0
1.0
1.0
1.0
1.0
1.0
1.0
1.0
1.0
1.0
1.0
1.0
1.0
1.0
1.0
1.0
1.0
1.0
1.0
1.0
1.0
1.0
1.0
1.0
1.0
1.0
1.0
1.0
1.0
1.0
1.0
1.0
1.0
1.0
1.0
1.0
1.0
1.0
1.0
1.0
1.0
1.0
1.0
1.0
1.0
1.0
1.0
1.0
1.0
1.0
1.0
1.0
1.0
1.0
1.0
1.0
1.0
1.0
1.0
1.0
1.0
1.0
1.0
1.0
1.0
1.0
1.0
1.0
1.0
1.0
1.0
1.0
1.0
1.0
1.0
1.0
1.0
1.0
1.0
1.0
1.0
1.0
1.0
1.0
1.0
1.0
1.0
1.0
1.0
1.0
1.0
1.0
1.0
1.0
1.0
1.0
1.0
1.0
1.0
1.0
1.0
1.0
1.0
1.0
1.0
1.0
1.0
1.0
1.0
1.0
1.0
1.0
1.0
1.0
1.0
1.0
1.0
1.0
1.0
1.0
1.0
1.0
1.0
1.0
1.0
1.0
1.0
1.0
1.0
1.0
1.0
1.0
1.0
1.0
1.0
1.0
1.0
1.0
1.0
1.0
1.0
1.0
1.0
1.0
1.0
1.0
1.0
1.0
1.0
1.0
1.0
1.0
1.0
1.0
1.0
1.0
1.0
1.0
1.0
1.0
1.0
1.0
1.0
1.0
1.0
1.0
1.0
1.0
1.0
1.0
1.0
1.0
1.0
1.0
1.0
1.0
1.0
1.0
1.0
1.0
