# vtk DataFile Version 2.0
Unstructured grid legacy vtk file with point vector data
ASCII

DATASET UNSTRUCTURED_GRID
POINTS 175 double 
14.801820965022097 0.30225716366644084 53.06549303963637
75.32472640636166 18.669903067565134 57.41775825287106
100.14940038256944 19.403414842938414 57.7717372562434
50.25997239374854 1.886518191316647 117.70207089654568
109.19049225616223 17.387720614014114 138.66053883277849
51.7152908811212 19.93403279965317 136.5336585346358
2.1987148675135635 9.619131047901767 179.85150182394702
99.03586266532844 1.1160297507091865 134.97192378940474
91.86518190776312 17.39204802572422 54.66760414852577
57.69721063271836 0.8239484635643 22.11330017599367
57.96535567572969 19.057953311732444 107.63773052113447
43.221002459932635 0.41650301638175513 174.71899633613074
87.32094148758961 16.967163766774544 64.25507734655591
83.30657927338686 7.6578500662020055 2.023350758951864
52.75522518173193 11.973377181340094 149.00711488972047
74.4373225109548 17.99434853039738 110.6556750559196
109.83607043030169 0.9530925310272195 4.47842007320342
90.83285104278771 1.138872752474046 124.2958629820726
6.191216113719106 18.269576928465785 15.094915594658348
4.588902467792398 10.214514767935478 2.7238927540579896
63.47407546972637 13.167636818085859 155.67401382651704
26.65227946834885 19.961217025747505 117.32631597481759
48.02798245954043 1.408458572837576 66.80172298594556
57.821799469394655 18.537540314327984 61.95112627348375
48.82858420879609 18.64238668206003 33.35374048677249
74.21878373071303 0.9486859405902944 43.499827959396214
95.87840525646067 18.386660717059087 128.7012854233194
66.63390909593168 0.26596428232426916 165.56943077466536
119.12538988185982 13.545134209959416 4.780026930352806
42.256454416923006 15.871485471394202 86.37708526100093
94.38442076259092 0.4395043507044005 158.2382142434464
27.95558703623576 16.537000182401044 39.66476698442101
48.910829384350976 15.022153584443247 46.161171347939835
36.16172928356255 15.03925711019515 37.31763010770502
53.30881015471494 1.6322850641237225 46.31071085877786
36.74630593297186 19.320985769866954 140.78074144413864
18.89911906950753 8.665024430564166 59.63699953941668
57.240670063408416 19.11465970362907 31.512233655621394
80.64889522787684 0.920471943693375 29.25495413241181
8.072313187252506 10.52820915386093 179.65169165656235
10.140260218128615 19.15462648873178 24.259060260828832
72.9615013070847 19.799241859323256 2.057103908745802
116.69358586106218 0.2645505597596831 5.2171915007397835
37.17171134167323 19.30369019758571 130.23046992509344
46.16322505793946 1.5829424380251869 85.89707361603976
37.080931039701746 18.817924442106598 54.32589882015992
26.046238669998964 8.357403469016269 7.117492643219434
98.32296061177657 0.19242824013147253 39.24553102190019
39.534622837526776 19.18280635500484 71.77204171865387
90.4481597104958 19.979557959085508 112.58185948610786
39.978330435694296 19.63020890711185 130.48022260723138
12.606314177450027 17.82576743778257 175.3173752964277
45.66493879813524 11.92417980548877 8.717893607090726
66.38794371280216 0.10596294859079433 89.76087268954755
70.30947163712494 19.806418241955633 24.542265996313997
42.43337698193576 0.3549649181762889 56.842844458808706
91.5144266100917 0.6090058813370858 22.93128378978223
80.28067941284564 19.096372658869527 174.24780621992068
93.26036743121168 16.965942359701547 32.43677987556521
75.22093027425123 18.016331825200105 47.07617941628978
59.07702632874113 18.134620869889236 179.0673349846613
67.4359335000198 18.465403993014522 115.5782333274067
89.0908269188335 0.2851667681891213 117.59044544027894
46.06619416103061 15.213256007375279 114.00652026910916
26.479277816106016 11.753577838494024 53.592985337511266
69.0889724432826 19.69986715430998 169.6981584411574
22.451745648280863 19.310891137740693 84.40797775303692
110.65453813035344 1.8137666213396648 1.8704541191938917
11.83571830346422 1.9986565794846105 3.290272933681067
105.9726750774463 13.696716679882552 171.35782308126267
102.47219111539835 12.476043059229305 151.19876155110296
85.5114972140745 1.2977549033977365 155.74823748957195
63.174365980180475 16.96162823801867 122.90301335399295
108.708449289243 2.06430988573035 70.34656858172039
50.42786555264117 0.7108902365174028 60.0278196830161
44.60486807299236 2.119321933951138 3.3880407839439948
74.74238476085782 18.94760033280017 115.93551911319116
53.80066516164895 3.1804342241374775 68.85378665483027
67.64214518516368 18.352454868459947 135.44375646440525
9.913470107076138 17.876730065952533 26.95633668335616
79.57565856787065 17.039523584861048 49.220627879738444
85.45306961580695 19.920215687948552 108.5288363932822
72.1608062646095 17.63821298979267 119.61400697935167
3.402071158824769 15.346921655706923 11.74710594995665
12.378199001162095 7.685853945060116 15.578876264643409
41.26185478695697 1.5442899416183364 109.3392370466243
72.75010955426244 18.158335526167612 43.57463118475844
33.477353813446335 19.330580153187725 121.48835586180216
40.65023036362539 1.1106708511056818 2.8688562386624428
104.60971822737764 0.04371203447161576 74.21247684434024
44.911407094452706 1.3204616060370213 142.67801397370062
95.58102460408747 1.495363026447074 23.281248093755337
75.32831377179964 11.779409182124315 85.50766164335158
35.010224087235144 17.477741347129438 67.3351383522721
73.25653104089136 17.88013290969064 137.78800778736448
118.52889473074045 18.4093738826515 173.37093192471852
68.72160992394546 19.255280610177255 74.94372018442446
13.594539813215242 19.779407513467092 73.786510984004
118.97176386204045 12.515798412972055 163.34992437775566
27.698982916863805 19.151019032811018 139.78201076022694
105.6040734336355 19.661376591880437 82.86061466768398
96.4672652029862 18.296366524033715 29.77487275199541
93.3918901166304 11.987223534248047 96.03863413631706
62.23690165945183 19.180668767407052 59.71184417178553
43.491408946433545 0.16639413050850707 136.57091029665926
74.40519457909039 19.518148742764925 94.19800257443731
40.90957761678683 19.015850235779617 44.088453345759724
8.674898952346425 11.669396572336861 15.334501144882458
109.4748034655689 5.536525661524551 106.50659302449688
27.903521996223322 19.513346508093314 58.48431095692057
84.99193921346271 17.62589484095979 7.265558028784313
36.740258793165715 0.4268405562373141 148.57341914618254
48.57113155821431 19.96291641698936 98.11918688855748
40.57628462969984 3.8253215745477167 93.03205323989627
108.04869438907627 0.21848340402720726 127.51030406530687
106.15892259889134 1.7803347774675244 21.1021019158844
2.2787794413305695 17.490959237222093 177.20606862522223
26.07119864848216 16.20137364025667 142.0780395077898
68.48324111573264 18.250329709249762 50.204725761032726
1.6378097434444467 19.276665536810867 9.114349290484606
79.82313363254293 18.083104392442486 32.58501052848323
43.012659911051855 11.888438594397776 105.07730257579324
44.80893591522675 2.038321669866145 28.401145123079147
51.381493096830084 19.877991516427787 119.58629173254307
37.08305364095787 18.923949048226724 93.1516038992981
53.87982246416971 19.228665887557142 23.410580223648722
66.09042351090059 1.762818081188963 91.83553917925202
43.20027526926684 19.21454766863765 119.3340964340674
47.049279270085265 19.63874059269493 137.1399170639873
10.349684112124516 19.302823524701008 75.588411912343
94.1503523874029 19.768137409043472 115.80739750944146
50.59910937811744 19.54777590050499 157.51114182040385
26.594010189755384 17.827187689774533 54.83996077313108
11.536873323544228 19.2656199503137 164.69475554003395
56.405418798821756 19.180166427825394 34.38847457828233
82.10493189545791 17.47123512469376 124.62653608175975
65.72551744726566 0.4100357671166765 166.64396857977175
66.75001756972478 0.9695451569640392 128.08514859412605
92.17063938764687 18.483503033946896 178.63505670914978
100.49617752647086 0.5360101232296377 67.19183798967316
7.216357681047205 10.388086292726003 179.44138584919824
107.72195593283526 17.65630008211688 57.86143114971675
30.02021175704607 17.66371783779938 179.3155600934016
32.26707641964608 15.794423522414768 29.67640887754092
34.42037031948385 0.5292846340504065 83.48004816360104
11.919753403798392 17.075238561816317 26.014347281407236
47.2177431507838 14.403672666846782 154.87543981230718
0.2998863175798449 0.9969563821049647 14.17925756722111
96.20577943264026 18.263707944128914 116.62572210332058
30.35894339019047 7.5152232789767215 145.8277754721703
42.372608353516895 17.213455175569663 171.0480428847043
19.724166979579003 6.140664500779076 151.39555504530537
67.816956065598 0.7287365581356129 44.09860809242355
8.5015511906123 1.9558550877171437 155.40069449259963
0.7163847364507188 0.47876349731134815 0.12197479554132752
41.51793779278079 0.8026910838780031 32.11231735887312
11.63758770012817 3.841522366428227 47.39652369119257
109.03307505819383 17.500377130898972 66.6492777014931
97.37314731579386 18.553847940154547 113.89606772866193
99.72789863946149 18.95944974357883 18.86613680349782
75.41667633132323 0.5283693712076943 10.615083973464492
85.24309079473026 18.445443985727124 27.22274289621508
72.13466136124167 18.85241661023741 156.97733851616252
80.96767322738174 1.1905528830212921 135.47338495849425
64.0591652795609 13.143425463328636 179.204943214275
35.15382404444319 1.8175082144718846 80.16788524829957
14.598141875644137 19.205094816933666 26.048022456136433
26.303155170694986 1.2013432630080456 171.89104949161342
88.6201869517655 2.8367774668024994 58.396724607296065
21.25746176974583 1.0688314668113144 179.0108606190505
93.09547590018394 0.9899347614799892 93.66555707824939
56.79540193866886 19.43695660473628 150.24187845238183
26.1418126177155 18.79394590508335 147.9829959836988
42.440120246282056 19.7587070175286 114.8980767194772
95.50815727901454 17.2924482990962 153.32909345952532

POINT_DATA 175
VECTORS Size float
0.7589543422349814 0.5 0.5
2.7445977765107608 0.5 0.5
0.673164693414696 0.5 0.5
3.6913829563112825 0.5 0.5
2.631903027633317 0.5 0.5
0.08013467738155719 0.5 0.5
2.39578971281472 0.5 0.5
3.140126541656445 0.5 0.5
3.1280494271490893 0.5 0.5
0.907868224898371 0.5 0.5
2.468839977932542 0.5 0.5
5.659759879270321 0.5 0.5
6.649741362821 0.5 0.5
2.0337397152048076 0.5 0.5
20.805631565393323 0.5 0.5
3.6649876612381966 0.5 0.5
2.226575780809028 0.5 0.5
4.927516922425422 0.5 0.5
2.8806758530484835 0.5 0.5
10.464901556159868 0.5 0.5
17.204665714287515 0.5 0.5
0.06797835368698994 0.5 0.5
7.517202493986136 0.5 0.5
2.1646577059551584 0.5 0.5
3.8044489920862055 0.5 0.5
1.9646922386595134 0.5 0.5
1.7150216921055288 0.5 0.5
0.41941674613538943 0.5 0.5
0.9166899152937072 0.5 0.5
4.693628434101391 0.5 0.5
1.6588151983740438 0.5 0.5
11.103857180689342 0.5 0.5
8.942698165055196 0.5 0.5
1.3140831365835635 0.5 0.5
1.6747929766210543 0.5 0.5
1.5093513677041965 0.5 0.5
13.974077241608098 0.5 0.5
6.31702652407676 0.5 0.5
0.8121147733395422 0.5 0.5
3.669491795285103 0.5 0.5
1.9601005468397306 0.5 0.5
0.21630410639328307 0.5 0.5
0.9685696046488331 0.5 0.5
3.5229102858750188 0.5 0.5
1.853307757161363 0.5 0.5
1.7464409020274523 0.5 0.5
8.833726442104773 0.5 0.5
0.19477688818759795 0.5 0.5
1.8365993417926019 0.5 0.5
0.0677870529711363 0.5 0.5
0.4613768405143942 0.5 0.5
4.699386150291078 0.5 0.5
7.4822189614104495 0.5 0.5
0.48682425552298825 0.5 0.5
0.2844935889635807 0.5 0.5
0.9167669328850131 0.5 0.5
0.6411520083547186 0.5 0.5
5.862228977818206 0.5 0.5
3.978666636523592 0.5 0.5
2.2430731387469267 0.5 0.5
1.061924226831497 0.5 0.5
9.131234797840936 0.5 0.5
0.29120930694244107 0.5 0.5
7.782415943174643 0.5 0.5
8.508527089940984 0.5 0.5
1.5532676338988292 0.5 0.5
2.5636779249639363 0.5 0.5
7.088793225382958 0.5 0.5
3.627277114666864 0.5 0.5
9.02193815135868 0.5 0.5
0.7480627723046691 0.5 0.5
1.8486609630262385 0.5 0.5
5.117020631263263 0.5 0.5
3.9089630012996888 0.5 0.5
0.9379230957574434 0.5 0.5
2.386190155808863 0.5 0.5
1.4667199414360659 0.5 0.5
7.357962485594766 0.5 0.5
4.303758727991707 0.5 0.5
0.7236013019713151 0.5 0.5
5.612307551289143 0.5 0.5
30.0 0.5 0.5
13.045085479904646 0.5 0.5
0.08267802199888973 0.5 0.5
5.496535330962007 0.5 0.5
1.5737071319496083 0.5 0.5
2.2294250856017537 0.5 0.5
1.5224960854320175 0.5 0.5
3.4893736457537123 0.5 0.5
0.0678978523172855 0.5 0.5
1.9710480766597338 0.5 0.5
2.3897424277945643 0.5 0.5
16.927889840181628 0.5 0.5
2.854362032020727 0.5 0.5
2.2462102218596476 0.5 0.5
0.09520803980987645 0.5 0.5
2.055695674904564 0.5 0.5
0.2843959724923622 0.5 0.5
8.103567967024105 0.5 0.5
1.0526889463363582 0.5 0.5
2.4750842236991395 0.5 0.5
2.9222598747749697 0.5 0.5
8.779451452202855 0.5 0.5
0.9116364805359469 0.5 0.5
0.6720210143627457 0.5 0.5
5.1219287710513735 0.5 0.5
1.3233238558432094 0.5 0.5
9.104202608621232 0.5 0.5
0.7707713867243466 0.5 0.5
6.524457762176092 0.5 0.5
5.409561236403058 0.5 0.5
0.5364733287726539 0.5 0.5
0.05864535704227021 0.5 0.5
3.976186010318849 0.5 0.5
0.2862716167887983 0.5 0.5
4.801183693506993 0.5 0.5
2.7955603594773457 0.5 0.5
11.229556600259114 0.5 0.5
8.606779402296675 0.5 0.5
1.7254094265755802 0.5 0.5
2.044801743725469 0.5 0.5
14.49069507175399 0.5 0.5
6.242511761738026 0.5 0.5
0.17380151670237617 0.5 0.5
1.4933481134477018 0.5 0.5
0.8484500506946306 0.5 0.5
2.069465995407094 0.5 0.5
1.0060428393747907 0.5 0.5
0.8405546700469381 0.5 0.5
1.0246533520494157 0.5 0.5
0.2921589511969378 0.5 0.5
1.2630974818791023 0.5 0.5
4.988937490355139 0.5 0.5
2.992055370081003 0.5 0.5
3.564283538088549 0.5 0.5
3.1374939906955355 0.5 0.5
2.2572048290159166 0.5 0.5
11.95907312594837 0.5 0.5
2.559235912196155 0.5 0.5
1.1523612571118433 0.5 0.5
2.0533491297263087 0.5 0.5
2.9098951196152685 0.5 0.5
6.443179931328332 0.5 0.5
11.184382356626932 0.5 0.5
0.6219709216177478 0.5 0.5
3.078884199706986 0.5 0.5
30.0 0.5 0.5
0.09397350446452876 0.5 0.5
4.030870135361112 0.5 0.5
1.839105438547034 0.5 0.5
4.189337687234176 0.5 0.5
3.496404595766409 0.5 0.5
1.9079180479165325 0.5 0.5
0.1382212072505786 0.5 0.5
1.3798791261884211 0.5 0.5
2.35340719550402 0.5 0.5
5.860421404499745 0.5 0.5
4.121408762478295 0.5 0.5
4.5501399262694635 0.5 0.5
1.385320764027784 0.5 0.5
0.6160813629995789 0.5 0.5
1.8491453509527946 0.5 0.5
1.471724622134957 0.5 0.5
2.076363923582728 0.5 0.5
1.0592379369220193 0.5 0.5
2.785577350714531 0.5 0.5
2.50363809974359 0.5 0.5
1.2948931135818664 0.5 0.5
3.386135968974408 0.5 0.5
1.0847676446407915 0.5 0.5
1.0514194318907397 0.5 0.5
1.7398264080421098 0.5 0.5
3.848310544393323 0.5 0.5
0.2885842063414473 0.5 0.5
5.452053249814856 0.5 0.5

VECTORS Orientation float
0.1410591809586146 -0.3982547392460369 0.9063638729204491
-0.02249931992164647 0.4846236282118662 0.8744333705788168
0.16045660968858672 0.8862395234000567 0.4345494029116653
0.3236866121777804 -0.5110600047852528 -0.796269206114219
-0.09315300420443431 0.9925439343921886 0.07860697239407868
0.41948439684382227 0.8232041670640119 -0.3825803708151022
-0.9177411755935705 -0.3724355733815524 -0.13799593581002786
0.018428767679738785 -0.35540916453655763 -0.9345291361350015
0.3764915077778649 0.8337310630838315 -0.40391417283905023
0.4075188273889985 -0.9075639404127575 0.10127240189688676
0.7970691859810487 0.38157462479866616 0.46806144732210697
0.09129750532544997 0.34789101099478864 0.933079101679152
-0.8252997605882186 0.4560833373433406 0.332968909315554
-0.0007194421890824523 -0.1009454865785467 -0.9948916981975259
-0.894501664373223 -0.4087338069120513 0.18111722038700778
-0.6946905204880235 0.5472464452786228 0.4668258871078063
0.9001223701937339 -0.4280530396683433 -0.08093400958500922
-0.46639817430696007 -0.23112508194359893 -0.8538465550083921
0.7980658819443317 0.6007003772059218 -0.04743316246129254
-0.39562965716059867 0.03246125452704838 0.9178362824216078
-0.8478452572584488 0.3971226930750677 0.3513573485629129
0.8002436405652104 0.5705194690514718 -0.18470964016034763
-0.7344753268801901 -0.18736472430593185 0.652257966060975
0.09604649724499179 0.6756078254999235 -0.7309782052087687
0.7015295022379957 0.35684886846005764 0.6168591756377516
-0.8345423111537746 -0.48286745472032305 -0.2652888087839988
0.2629592726494057 0.9407107154197097 0.21427965564241816
0.6192560805012497 -0.6341289058554078 -0.46303610822575486
0.3684311106591116 -0.02767016320375072 0.9292431752597224
0.25828305583213645 0.879599777990567 0.39949229483052456
-0.4914193225729007 -0.26495076192646383 0.8296433831210719
-0.40402402888139893 0.3118735914238379 0.8599415370005333
-0.7772807726446909 0.5566380888274147 -0.29323819420981917
-0.7227578580155724 -0.6753604640588371 -0.14666056819395593
0.15226914588938556 -0.9746190048019596 -0.16410942291335667
0.6415355607610592 0.44987154393735695 -0.6213273841014992
0.43946088732189054 0.8111430453300854 0.3859029522132366
0.9820841279837693 0.14015142931512772 -0.12596960912571795
0.43458820356611955 -0.8817675315815507 -0.18335515692162024
0.5201225250603952 0.84880076761112 0.09492004966060673
0.5794429530727505 0.43129089098577944 -0.6915446706374238
0.07412999625340036 0.9281291235022907 0.3648027874925581
-0.4468646111589857 0.2731353105547845 -0.8518856269604916
0.3834801025768366 0.19765186902604936 -0.9021511789041614
0.5025481203414432 -0.8541174189276133 -0.1338985490052613
0.6802406666129536 0.6768483013202019 0.2813343428839102
-0.30780832503248406 -0.791023877664749 -0.5287109418244726
0.020776787521450815 -0.9879418545085825 -0.15342495628297007
0.41383461057248433 0.44494932912125634 -0.7942046396281403
0.39150696953913533 0.3015626143711552 -0.869357396250769
-0.3176565790627278 0.8014947011121513 0.5066562363845019
0.5049211811031631 0.4626630995375351 -0.7286957233301892
-0.5055670538212936 -0.6038674683140994 -0.616235372891217
0.06808679920138551 -0.2176616045495914 -0.9736465548028235
0.7233148653787173 0.6804433054171426 0.1175266507442519
0.06200948648987997 -0.38719210460529524 0.9199114618899927
0.053442563912262306 -0.9498619257231625 -0.30806852228679416
-0.1291720987564545 0.1431874445260868 0.9812298021528604
0.028545328661668843 0.7625815172465663 0.6462620163412995
0.4144467955469424 0.8843528730891285 -0.21483447004583447
-0.2523198310376657 -0.40615503562985633 0.8782783100462142
0.24887240748497477 0.16806007522096916 -0.9538439788085653
0.06824051767721147 -0.9792501866895565 -0.19082008179333448
-0.7366400742414989 0.6150717242018924 0.2811550730625185
-0.23041308246930972 0.9691950292142955 -0.08701038313495726
-0.16159505965095833 0.19322674286121744 0.9677553732941234
0.9627273346121882 0.268796971549771 -0.030071037165079906
0.9646731117891241 -0.25586394801940054 0.06276485875881302
-0.14116255876174688 0.3290083956099605 -0.9337165563606528
-0.17359808355054843 -0.8016700592635525 -0.5720042145543589
0.22215653725438664 0.005599307578748758 0.9749949336841597
-0.46594925102233525 -0.7019972452240949 0.5386011169404559
0.7825948355229341 0.5937775086185718 -0.1870122821409168
-0.7681358004813734 -0.5280965527286875 -0.3620516855573471
-0.5937767187968268 -0.7579408586194416 0.27010157913292093
0.41462186766957104 -0.888161376741887 0.19813650777722017
0.5864749531872708 0.7175191646807652 -0.3757836845843701
-0.6163813353150884 -0.43224387598659986 0.6582091469641465
-0.09908330856541063 0.38281540292312344 0.9184959799849634
-0.9828922723380024 -0.16170972297804204 0.08816318093514533
-0.42892978975128215 0.5274971815218741 0.7333252749976642
-2.3957279483848553e-06 5.591227226919654e-06 -0.9999999999814994
0.7595999748112148 0.1810480286883174 0.6246835115279384
0.3154392228290971 0.8474399362316927 -0.4270171556045493
0.12888975513178635 -0.9435248726491706 0.30520197527937876
-0.09200027756593755 -0.9813070744015583 0.16903364948212232
0.09034794542133905 0.8260714772280834 -0.5562761573790079
0.8686064321560989 0.43968575894388906 -0.2284716599471116
0.48642125060597935 0.2956887616061758 -0.8221694005609314
-0.7427094306224121 -0.6437911212176678 0.18416214026186406
0.6630032903284229 -0.6699286646902893 -0.33409911888535543
-0.027903444103660455 -0.12629439580225071 0.9916002840843171
-0.249087778029026 0.4856240733775641 -0.8379287190404354
0.29650920034063 0.8836505757067352 0.36227607451571486
0.3255719934717216 0.9437527572794636 -0.057737424555129854
0.802337638454712 0.43162664066613854 -0.41225326801152257
-0.44955776091874794 0.3622712247314121 -0.8164908935985291
-0.5205525837703524 0.7756526388179826 -0.356914543588112
0.7379260031732219 -0.13198805974287428 0.6618492018021217
0.48245688672256914 0.8064879660261148 0.3417784561803542
-0.46936646757570805 0.1368128829222117 0.8723401596751207
0.8060778866649604 0.5829849325421387 -0.10181851039270426
-0.1996694369801246 0.9126739306407878 -0.3565927821265238
0.39232640330189134 0.8987477465922236 0.1957868260828649
0.7926362678333354 -0.2476025703843423 -0.5571541205575957
-0.5300959806489045 0.09407613396704177 0.842702754426311
-0.6217282804829012 0.7436953243718958 0.2457055346449396
0.40275611653290533 0.9150283430395614 0.022597389884846067
0.681390803391266 0.5061569541977357 -0.5286886709312735
0.3951590589527096 0.0745891091100226 0.915579479307931
0.6846340133650061 0.4388720369896035 0.5819515468596339
0.5367523471122417 -0.795641709185881 -0.28080453784308673
0.5919890903366591 0.6323362134859534 0.49969973988048233
-0.032571452276468106 -0.9620580034788077 -0.27089388778444645
-0.4347667468304919 -0.7632031651548536 -0.4780154856780731
0.452642860846257 0.3708116354463187 -0.81093351857137
0.009831638858432022 -0.03268650620595328 0.9994172958226236
0.8920991775762592 0.31923252234170385 0.3197649981582027
0.493431842860212 0.20328977994757802 -0.8456939646352221
-0.8214546317400419 0.16367483692131818 0.5462809128567573
-0.034809759740340916 0.9374481479388217 -0.346380210971835
0.21315952475218228 -0.8204187953393162 0.5305431342138064
0.8609357307638957 -0.3265226799186101 0.39009307478191113
0.22282746781811474 0.7019989577026637 -0.6764210101483698
-0.03891130025849664 0.7205627020808903 -0.692297120521297
-0.31204395538504176 0.9091096309221306 0.275949721638355
0.27049799460471835 -0.8518226852247403 0.44858549670195397
0.47983805275168434 0.7807344783155272 -0.40026131152142763
0.8819337144845141 0.4297869254416216 -0.1935875046974515
-0.7382635877888746 0.38066480600315944 -0.5568313752076794
0.6069169652674833 0.7936179603829213 0.042688759974500536
0.7305483575383288 0.35802786877718823 -0.5814766912584842
0.6227454992513983 0.43552606430248014 0.6500039157384504
0.16808041843287086 0.245443335384005 -0.9547285174619043
-0.5596068152803063 0.23001356749925259 0.7961997055124423
-0.2963409421930516 0.8059823804620746 0.5124201873119579
0.008841032961378344 -0.18165642827170464 -0.9833223165390598
-0.010199021092156145 -0.08107193147438446 -0.9966560700140117
-0.7363994126734504 0.5925584893624589 -0.32648176319463534
0.4095546651260877 -0.46514070125286544 0.7847987667621877
-0.4084394852150127 -0.17961454214635283 0.8949389941034257
-0.5842375068648888 0.8054241893752488 0.09979183704853946
0.9315836323292433 0.36259769044180185 0.025977891802921396
0.21917337185187769 0.37602223739188956 0.9003167831701662
0.4516256896304978 -0.8509797092663676 0.26808164965678966
0.2290106494046678 0.9499420077124139 -0.2125189507845373
0.559974064759444 -0.17865248719449683 -0.8090193666507658
-0.44389654898771413 -0.29175871502428946 0.8472500846882067
0.16085481517183814 0.43074869632720997 -0.8880209958376225
-0.4197862592781586 0.8086843532137412 0.41207901352595444
0.6441585202020367 0.6651516379120136 -0.3776679751237692
0.9351974532479729 -0.26075037548714763 0.23961420058464217
0.22293219013193366 -0.3819538050554117 0.8968904779328811
0.5423537112658497 -0.7984027950984005 0.2615443148975347
-0.2522764252251023 -0.09638778650096541 0.9628426662176368
0.15635923719420824 -0.34107615775607175 0.9269405825371982
-0.739314763616266 0.07398222758655822 -0.6692834304690021
-0.1403435913970278 0.6064971986903696 0.7826013188939299
0.2035385266408209 0.31782584344194337 0.926044708107174
0.5879550768540304 0.7511258644501938 0.3001978736692188
-0.45648572814416233 -0.8576292076669354 0.23683944383754685
-0.517347884142156 0.8406889233839154 0.15997906385907976
0.07571466384576711 0.7797541554328652 -0.6214907455175029
-0.8099098580356873 -0.5733835333485354 -0.12360155962350114
-0.585152431428767 -0.3069307575021319 0.75059319347578
0.07802851180381018 -0.6524709191815022 -0.7537859450587602
0.2393630479550843 0.3175000345088788 -0.9175505759142178
0.3731599974806806 -0.927754770187133 0.004764732441416558
-0.157341623195873 -0.8377624208816697 0.5228744971487631
0.1996270489739897 0.3587320711767831 0.91184447271843
-0.09405089691252068 -0.9415222236285056 -0.323558852766517
-0.6940548359857251 0.3236204443507276 -0.643084514385991
0.43212553022372246 0.31339832921586186 -0.8456057079830842
0.3231671038479746 0.8361267774505612 0.4432324841667768
-0.8185412727664277 0.4966113823256857 0.2887339947468747